<?xml version="1.0" standalone="no"?>
<!DOCTYPE svg PUBLIC "-//W3C//DTD SVG 20010904//EN"
 "http://www.w3.org/TR/2001/REC-SVG-20010904/DTD/svg10.dtd">
<svg version="1.0" xmlns="http://www.w3.org/2000/svg"
 width="575.000000pt" height="383.000000pt" viewBox="0 0 575.000000 383.000000"
 preserveAspectRatio="xMidYMid meet">

<g transform="translate(0.000000,383.000000) scale(0.100000,-0.100000)"
fill="#000000" stroke="none">
<path d="M0 3566 l0 -264 25 -16 c30 -20 35 -20 35 -1 0 10 10 15 33 15 17 0
43 3 57 7 l25 6 -22 -25 c-24 -26 -30 -48 -13 -48 23 0 8 -37 -23 -54 -78 -45
-116 -81 -117 -108 0 -15 4 -29 9 -32 5 -3 8 1 7 9 0 9 14 25 32 36 26 17 31
18 26 5 -7 -18 34 -86 53 -86 6 0 16 -13 21 -29 7 -20 21 -33 46 -42 20 -7 36
-18 36 -24 0 -7 12 -17 27 -24 22 -10 25 -10 15 2 -15 18 9 42 33 34 8 -4 18
0 22 8 7 11 112 65 127 65 2 0 10 -21 17 -46 8 -26 20 -49 27 -51 17 -7 15
-18 -14 -64 -20 -32 -23 -43 -13 -55 15 -19 4 -18 -27 2 -13 9 -26 15 -29 13
-2 -3 16 -18 40 -34 25 -17 43 -35 40 -42 -2 -8 2 -10 12 -6 13 5 15 2 10 -16
-5 -19 -1 -18 32 12 24 22 52 36 79 41 28 4 56 18 80 41 30 26 41 32 50 23 18
-18 15 27 -3 56 -12 18 -13 25 -2 40 11 14 17 15 42 6 17 -6 36 -18 43 -27 11
-15 12 -15 12 4 0 11 9 28 20 38 12 10 18 25 16 32 -8 20 16 53 37 53 10 0 25
7 33 15 8 8 21 12 30 8 8 -3 21 2 28 12 13 18 36 13 36 -7 0 -6 8 -20 17 -30
14 -15 15 -23 6 -38 -13 -19 -1 -84 17 -95 7 -4 6 -13 0 -25 -17 -32 -11 -48
20 -55 16 -3 40 -15 53 -25 27 -21 103 -169 113 -219 10 -50 31 -21 39 56 8
75 40 129 82 139 22 6 25 11 20 43 -25 158 -16 193 12 49 14 -73 19 -83 41
-88 20 -5 33 2 69 37 24 24 62 53 85 65 22 11 54 30 70 41 22 15 30 17 36 7 6
-9 11 -7 20 10 11 20 9 25 -15 44 -15 12 -33 35 -40 52 -11 26 -10 32 8 52 13
14 21 37 21 60 1 38 2 38 28 28 23 -8 30 -7 41 8 13 17 18 18 66 6 38 -9 59
-9 74 -2 12 6 34 12 48 15 l26 4 7 -91 c10 -125 12 -133 47 -138 l30 -5 -6 61
c-3 34 -8 84 -11 111 -10 95 13 31 26 -72 11 -82 17 -103 29 -103 9 0 35 -11
59 -25 23 -13 42 -22 42 -21 0 4 -40 96 -75 171 -13 28 -35 78 -50 112 -29 66
-30 66 -92 48 -6 -2 -31 14 -54 36 -23 21 -36 39 -29 39 7 0 10 7 6 15 -5 13
0 17 20 14 3 0 16 7 30 16 13 9 29 13 34 10 5 -3 7 0 4 8 -7 19 25 31 43 16
22 -19 41 5 22 27 -13 16 -12 17 6 10 41 -16 71 -17 128 -5 35 7 57 17 57 25
0 8 -3 14 -7 15 -79 7 -90 12 -95 49 -4 25 -2 31 11 27 9 -2 100 -21 204 -43
148 -31 187 -42 185 -54 -2 -8 -12 -16 -23 -18 -11 -2 -28 -12 -37 -22 -10
-10 -25 -21 -35 -24 -125 -36 -167 -49 -195 -61 l-33 -15 40 5 c46 5 87 -3 80
-15 -3 -5 0 -12 6 -16 8 -4 9 -3 5 4 -12 20 -2 18 287 -63 26 -7 47 -12 48
-12 0 1 2 9 4 17 25 124 80 204 150 220 67 16 81 12 129 -35 25 -24 46 -41 46
-37 0 5 -6 14 -12 20 -10 10 -10 17 1 34 10 16 10 22 1 28 -7 4 -10 12 -7 17
7 11 -15 79 -31 95 -7 7 -12 19 -12 27 0 8 -12 25 -27 38 -22 17 -25 25 -15
31 11 7 9 10 -7 15 -12 3 -24 13 -27 24 -7 18 -63 73 -75 73 -4 0 -24 8 -45
17 -22 9 -42 16 -46 15 -4 -1 -26 5 -49 13 -34 12 -125 15 -531 15 -456 0
-553 -6 -437 -25 22 -4 38 -9 36 -11 -4 -4 -73 4 -173 21 -26 5 -33 2 -37 -16
-4 -14 -10 -18 -18 -13 -10 6 -10 9 -1 12 16 5 15 19 -2 25 -10 4 -13 -2 -12
-24 2 -21 16 -42 49 -72 l47 -42 15 -174 c9 -95 14 -176 11 -179 -6 -5 -56 48
-56 60 0 3 -20 13 -45 21 -43 15 -45 15 -59 -4 -8 -12 -17 -16 -20 -10 -4 5
-2 12 4 16 18 11 11 23 -20 34 -16 5 -30 16 -30 23 0 10 -2 10 -9 -1 -8 -12
-30 -12 -130 -4 -67 5 -126 14 -132 20 -8 8 -57 257 -59 296 0 18 271 5 378
-18 31 -7 32 -7 32 29 l0 36 -240 0 -240 0 16 -25 c16 -24 15 -25 -1 -19 -14
6 -16 3 -12 -12 3 -10 15 -79 27 -153 20 -121 21 -135 6 -149 -21 -22 -31 -8
-13 18 27 38 11 57 -73 84 -42 14 -98 26 -124 26 -45 0 -46 -1 -40 -27 7 -25
6 -26 -27 -19 -46 9 -58 23 -25 32 14 3 26 10 26 15 0 13 -68 11 -72 -2 -2 -5
-11 -7 -21 -4 -9 4 -15 10 -12 14 2 4 -3 20 -10 35 -8 16 -12 32 -9 37 9 15
-16 149 -28 149 -5 0 -7 -12 -4 -27 17 -89 17 -130 2 -136 -9 -4 -13 -13 -10
-22 7 -18 -17 -20 -34 -3 -7 7 -12 8 -12 2 0 -6 -13 -11 -30 -12 -16 0 -30 4
-30 9 0 5 12 9 28 10 l27 0 -25 12 c-14 6 -29 17 -33 24 -4 7 -27 13 -51 13
-72 0 -136 12 -136 25 0 7 -8 19 -17 26 -15 12 -16 12 -11 -3 5 -11 0 -18 -13
-21 -26 -7 -51 39 -29 53 8 5 19 5 25 0 17 -14 38 5 30 29 -8 26 -40 27 -140
6 -79 -17 -125 -19 -125 -6 0 4 10 6 23 4 13 -3 39 0 58 5 30 9 25 10 -43 11
l-78 1 0 -264z m226 200 c3 -7 6 -26 8 -41 4 -34 23 -43 91 -44 30 -1 45 -5
37 -9 -7 -5 -10 -16 -6 -25 3 -9 2 -17 -4 -17 -6 0 5 -32 24 -71 19 -39 33
-73 31 -75 -2 -3 -16 0 -29 5 -35 13 -47 -2 -38 -45 4 -19 4 -34 0 -34 -13 0
-32 29 -26 39 3 5 -1 12 -10 15 -14 5 -14 9 -3 24 12 16 12 16 -5 1 -14 -13
-16 -21 -7 -37 14 -26 7 -31 -31 -23 -26 5 -33 13 -43 48 -12 39 -11 43 6 48
10 4 22 4 27 1 4 -2 13 -1 19 2 7 5 -2 12 -22 18 -19 6 -32 7 -29 2 3 -4 -5
-8 -17 -8 -17 0 -20 3 -12 11 14 14 -48 49 -87 49 -24 0 -50 16 -50 31 0 3 23
9 51 12 61 8 63 9 55 41 -5 22 -12 25 -64 29 -43 2 -52 5 -34 11 30 11 28 24
-6 29 -15 2 -4 5 28 7 30 1 69 6 85 10 46 12 55 11 61 -4z m214 -86 c0 -5 -13
-10 -30 -10 -16 0 -30 5 -30 10 0 6 14 10 30 10 17 0 30 -4 30 -10z m184 -69
c4 -5 -3 -7 -14 -4 -23 6 -26 13 -6 13 8 0 17 -4 20 -9z m-2 -60 c-10 -6 -1
-14 31 -27 25 -10 43 -22 40 -26 -2 -5 -9 -5 -15 -2 -6 4 -8 2 -5 -3 4 -6 18
-13 31 -17 36 -9 114 -56 93 -56 -10 0 -15 -4 -12 -10 3 -5 0 -10 -7 -10 -7 0
-18 10 -23 22 -8 18 -24 24 -83 34 -54 9 -77 18 -92 36 -20 24 -27 54 -10 43
6 -3 17 1 26 9 8 9 21 16 27 16 8 0 8 -3 -1 -9z m333 -11 c3 -5 1 -10 -5 -10
-6 0 -8 -5 -5 -10 4 -6 14 -8 23 -6 10 3 23 2 30 -3 10 -6 7 -10 -12 -15 -14
-3 -43 -21 -63 -38 -21 -18 -30 -23 -21 -12 17 19 16 20 -15 36 -18 9 -42 19
-54 23 -28 8 -30 35 -4 35 11 0 22 -4 25 -9 3 -5 15 -11 27 -14 15 -4 19 -2
15 8 -8 22 46 35 59 15z m-788 -6 c-3 -3 -12 -4 -19 -1 -8 3 -5 6 6 6 11 1 17
-2 13 -5z m1650 -31 c-2 -13 1 -27 8 -31 27 -16 24 -122 -3 -122 -5 0 -14 37
-20 83 -15 105 -15 108 4 100 10 -4 14 -14 11 -30z m-1651 -29 c13 -30 13 -38
2 -45 -24 -15 -36 -9 -47 22 -15 42 -14 47 7 52 9 3 18 5 20 6 2 0 10 -15 18
-35z m1524 26 c0 -5 -4 -10 -10 -10 -5 0 -10 5 -10 10 0 6 5 10 10 10 6 0 10
-4 10 -10z m275 -29 c19 -2 19 -3 -2 -11 -15 -6 -21 -15 -17 -25 4 -9 13 -14
20 -11 9 3 14 -2 14 -14 0 -23 -31 -34 -76 -25 -33 6 -34 8 -34 49 l0 44 38
-2 c20 -2 46 -4 57 -5z m-945 -19 c0 -13 -109 -62 -115 -52 -3 5 13 14 35 21
22 7 40 16 40 21 0 5 5 6 10 3 6 -3 10 -1 10 4 0 6 5 11 10 11 6 0 10 -4 10
-8z m205 -2 c3 -5 -1 -10 -9 -10 -8 0 -18 5 -21 10 -3 6 1 10 9 10 8 0 18 -4
21 -10z m5 -29 c0 -5 -21 -11 -47 -13 -27 -3 -57 -8 -68 -12 -11 -5 -6 1 10
12 30 21 105 30 105 13z m557 -33 c-3 -7 -5 -2 -5 12 0 14 2 19 5 13 2 -7 2
-19 0 -25z m-397 7 c0 -9 -6 -12 -16 -8 -13 5 -13 7 -2 14 17 11 18 11 18 -6z
m45 4 c12 -19 -5 -23 -22 -6 -16 16 -16 17 -1 17 9 0 20 -5 23 -11z m-530 -15
c16 -10 36 -14 53 -11 37 7 113 -3 106 -14 -7 -12 49 -35 129 -55 34 -8 71
-20 82 -25 16 -9 18 -9 8 2 -22 23 -14 33 10 12 12 -11 36 -28 52 -37 21 -12
23 -15 8 -11 -34 9 -28 -4 10 -20 26 -10 45 -11 101 -2 73 13 87 24 61 51 -14
14 -14 16 9 22 33 8 51 -3 35 -23 -10 -11 0 -10 39 5 29 11 60 18 70 15 10 -2
41 9 68 25 40 23 54 27 72 19 34 -15 26 -29 -15 -26 -64 3 -89 -16 -114 -86
-21 -62 -23 -63 -63 -69 -23 -3 -47 -7 -53 -8 -7 -1 -13 -5 -13 -10 0 -5 -5
-6 -10 -3 -6 4 -16 2 -23 -3 -18 -14 -207 -24 -207 -11 0 7 -9 9 -22 5 -27 -6
-108 24 -256 95 -56 27 -132 56 -168 65 -58 15 -68 21 -82 50 -19 40 -15 46
41 55 23 3 43 7 45 8 1 0 14 -6 27 -15z m635 6 c8 -5 11 -13 6 -17 -5 -4 -11
-2 -13 5 -3 6 -9 10 -14 6 -5 -3 -9 0 -9 5 0 13 10 14 30 1z m-213 -6 c-3 -3
-12 -4 -19 -1 -8 3 -5 6 6 6 11 1 17 -2 13 -5z m93 -45 c32 -27 33 -28 8 -18
-16 7 -28 16 -28 22 0 5 -6 7 -14 4 -13 -5 -36 10 -36 24 0 14 35 -2 70 -32z
m560 31 c0 -5 -8 -10 -17 -10 -15 0 -16 2 -3 10 19 12 20 12 20 0z m-290 -25
c11 -13 10 -14 -4 -9 -9 3 -16 10 -16 15 0 13 6 11 20 -6z m-1293 -69 c16 -35
17 -76 2 -76 -7 0 -9 9 -5 23 3 14 -2 39 -14 62 -11 22 -20 46 -19 55 0 8 5 4
11 -10 6 -14 17 -38 25 -54z m1131 39 c-11 -11 -68 -23 -68 -15 0 5 6 11 13
13 16 7 62 8 55 2z m76 -11 c3 -8 2 -12 -4 -9 -6 3 -10 10 -10 16 0 14 7 11
14 -7z m-1314 -4 c0 -5 -4 -10 -10 -10 -5 0 -10 5 -10 10 0 6 5 10 10 10 6 0
10 -4 10 -10z m12 -64 c5 -21 7 -40 5 -42 -2 -2 -24 3 -50 11 -26 8 -47 11
-47 7 0 -9 -20 21 -20 31 0 13 28 7 34 -8 6 -17 32 -20 41 -5 3 5 1 19 -5 31
-10 18 -9 20 11 17 18 -2 25 -12 31 -42z m688 -37 c0 -10 -4 -19 -10 -19 -5 0
-10 12 -10 26 0 14 4 23 10 19 6 -3 10 -15 10 -26z m-835 -167 c-10 -11 -26
15 -32 53 -5 30 -2 41 13 52 18 13 19 11 22 -43 2 -31 1 -59 -3 -62z m137 107
c26 -7 43 -19 53 -39 15 -30 11 -60 -8 -60 -7 0 -7 -4 1 -12 9 -9 17 -6 37 12
20 19 25 20 25 7 0 -9 7 -20 16 -25 14 -8 9 -14 -28 -36 -57 -33 -72 -34 -64
0 6 22 4 24 -12 15 -10 -5 -24 -17 -32 -25 -16 -20 -30 -20 -30 -2 0 21 -19
30 -34 17 -16 -14 -26 13 -26 72 0 36 1 37 28 31 15 -3 22 -2 16 3 -6 4 -14
18 -18 31 -6 18 -4 22 16 22 13 0 40 -5 60 -11z m1836 -44 c-3 -3 -9 2 -12 12
-6 14 -5 15 5 6 7 -7 10 -15 7 -18z m-423 -5 c-3 -5 -11 -10 -16 -10 -6 0 -7
5 -4 10 3 6 11 10 16 10 6 0 7 -4 4 -10z m484 -122 c11 -21 18 -38 16 -38 -7
0 -45 63 -45 74 0 13 5 7 29 -36z m-1009 1 c0 -5 4 -7 10 -4 5 3 7 0 4 -9 -3
-8 -1 -24 6 -35 11 -21 -3 -31 -15 -11 -14 22 -23 70 -14 70 5 0 9 -5 9 -11z
m-24 -26 c-7 -7 -26 7 -26 19 0 6 6 6 15 -2 9 -7 13 -15 11 -17z m9 -23 c8
-13 -5 -13 -25 0 -13 8 -13 10 2 10 9 0 20 -4 23 -10z m-610 -149 c-2 -20 -4
-38 -5 -41 -3 -14 -30 66 -30 88 0 24 1 24 19 8 15 -13 19 -28 16 -55z"/>
<path d="M260 3634 c-14 -8 -17 -13 -7 -10 10 3 27 6 38 6 10 0 19 5 19 10 0
14 -21 12 -50 -6z"/>
<path d="M1160 3255 c-21 -25 -2 -36 48 -29 50 7 81 24 45 24 -12 0 -25 5 -28
10 -9 15 -51 12 -65 -5z"/>
<path d="M326 3788 c4 -24 7 -44 8 -45 1 -1 38 -5 83 -9 l81 -7 -6 29 c-6 26
-7 26 -10 7 -2 -13 -9 -23 -16 -23 -13 0 -15 9 -17 63 0 27 -1 27 -65 27 l-64
0 6 -42z"/>
<path d="M472 3810 c0 -14 2 -19 5 -12 2 6 2 18 0 25 -3 6 -5 1 -5 -13z"/>
<path d="M507 3782 c3 -26 10 -56 14 -67 8 -18 9 -17 7 5 0 14 3 34 8 45 8 18
9 17 14 -10 3 -20 15 -34 33 -43 16 -8 31 -11 34 -8 3 3 1 31 -3 63 l-9 58
-52 2 -52 1 6 -46z"/>
<path d="M654 3813 c3 -10 10 -55 17 -100 7 -46 16 -83 21 -83 10 0 10 4 -2
76 -6 32 -13 74 -16 92 -3 17 -10 32 -15 32 -6 0 -8 -8 -5 -17z"/>
<path d="M696 3793 c3 -21 9 -63 12 -93 l7 -55 95 -10 c52 -6 96 -10 98 -9 4
2 -16 143 -25 182 -5 21 -10 22 -99 22 l-94 0 6 -37z"/>
<path d="M905 3798 c3 -18 10 -64 16 -103 5 -38 12 -72 15 -74 7 -8 97 -41
101 -38 2 3 -28 164 -42 225 -5 19 -12 22 -51 22 l-45 0 6 -32z"/>
<path d="M4830 3821 c0 -5 7 -12 16 -15 22 -9 24 -8 24 9 0 8 -9 15 -20 15
-11 0 -20 -4 -20 -9z"/>
<path d="M5086 3798 c-3 -18 -17 -145 -32 -283 -14 -137 -32 -262 -39 -277
-10 -20 -10 -39 -3 -75 6 -26 12 -49 13 -51 5 -6 61 26 74 42 11 13 11 16 0
16 -8 1 0 8 16 17 20 11 51 16 90 15 33 -1 79 5 103 14 39 13 48 13 74 0 16
-8 35 -13 42 -10 7 3 16 -2 19 -10 5 -12 0 -16 -18 -16 -14 0 -25 -3 -25 -8 0
-14 101 -54 144 -57 50 -3 86 -20 86 -40 0 -17 -14 -19 -38 -6 -28 15 -136 25
-128 12 4 -6 24 -11 45 -11 41 0 156 -33 177 -51 8 -6 11 -16 8 -21 -8 -12 14
-28 39 -28 16 0 17 27 17 430 l0 431 -107 -3 -107 -3 -17 -110 c-9 -60 -24
-167 -34 -236 l-18 -126 -46 -15 c-25 -9 -110 -38 -188 -65 -79 -28 -143 -49
-143 -47 0 1 9 81 20 176 18 154 32 274 44 391 3 26 0 37 -9 37 -17 0 -23 -27
-35 -152 -6 -57 -17 -164 -25 -238 -13 -116 -22 -205 -24 -232 -1 -5 -13 -8
-28 -8 -25 1 -26 2 -11 14 18 13 27 59 49 241 7 65 39 363 39 373 0 1 -4 2
-10 2 -5 0 -11 -15 -14 -32z m634 -2 c0 -3 -4 -8 -10 -11 -5 -3 -10 -1 -10 4
0 6 5 11 10 11 6 0 10 -2 10 -4z m-25 -84 c-3 -8 -5 -17 -5 -21 0 -9 -117 -7
-127 2 -3 4 15 8 40 9 69 2 71 2 79 12 4 6 2 19 -3 30 -10 21 -10 21 6 1 8
-11 13 -26 10 -33z m-115 28 c-8 -5 -19 -10 -25 -10 -5 0 -3 5 5 10 8 5 20 10
25 10 6 0 3 -5 -5 -10z m70 -10 c0 -13 -20 -13 -40 0 -12 8 -9 10 13 10 15 0
27 -4 27 -10z m-30 -91 c-30 -11 -59 -18 -65 -15 -11 4 81 35 105 35 8 0 -10
-9 -40 -20z m118 -4 c-3 -3 -9 2 -12 12 -6 14 -5 15 5 6 7 -7 10 -15 7 -18z
m-118 -45 c0 -5 -11 -10 -24 -10 -14 0 -28 5 -31 10 -4 6 7 10 24 10 17 0 31
-4 31 -10z m90 -10 c0 -5 -8 -10 -17 -10 -15 0 -16 2 -3 10 19 12 20 12 20 0z
m-126 -118 c14 -8 -21 -23 -38 -16 -20 8 -9 34 12 27 9 -3 21 -8 26 -11z"/>
<path d="M4785 3810 c3 -5 8 -10 11 -10 2 0 4 5 4 10 0 6 -5 10 -11 10 -5 0
-7 -4 -4 -10z"/>
<path d="M4914 3805 c-10 -8 -14 -15 -8 -15 5 0 19 7 30 15 10 8 14 15 8 15
-5 0 -19 -7 -30 -15z"/>
<path d="M4836 3778 c-12 -38 -13 -58 -2 -62 8 -3 8 -7 0 -13 -5 -4 -18 -93
-27 -198 -21 -228 -21 -245 -4 -245 15 0 26 75 48 320 16 170 16 202 2 207 -7
3 -15 -1 -17 -9z"/>
<path d="M1114 3749 c3 -13 12 -73 21 -133 8 -61 16 -111 18 -112 8 -6 237
-14 237 -7 -1 24 -37 254 -41 257 -2 2 -57 7 -122 11 l-118 7 5 -23z"/>
<path d="M1396 3702 c4 -31 12 -93 18 -136 l11 -80 59 -23 c32 -12 62 -20 66
-18 6 4 -6 108 -27 234 -8 44 -8 44 -70 62 l-63 17 6 -56z"/>
<path d="M1553 3665 c3 -27 9 -90 13 -140 5 -80 10 -94 35 -125 28 -33 29 -33
29 -10 0 34 -28 282 -32 284 -2 1 -14 10 -27 21 l-24 20 6 -50z"/>
<path d="M2880 3422 c0 -11 29 -50 30 -39 0 4 10 2 23 -4 l22 -12 -20 22 c-23
26 -55 46 -55 33z"/>
<path d="M3746 3353 c-60 -7 -156 -75 -156 -112 0 -10 12 -23 28 -31 15 -7 39
-19 54 -26 14 -8 35 -14 47 -14 14 0 23 -8 27 -25 4 -14 4 -28 1 -31 -3 -3 1
-26 8 -51 8 -25 11 -51 8 -59 -4 -10 0 -12 11 -8 9 3 16 12 16 20 0 23 33 34
47 16 12 -16 14 -15 28 2 19 26 19 34 -2 38 -17 3 -17 4 0 11 26 10 31 -16 11
-58 -11 -25 -14 -39 -7 -46 8 -8 13 -7 17 0 4 5 13 8 21 5 9 -4 18 3 24 18 5
13 16 30 25 37 9 7 16 22 16 31 0 10 4 20 9 22 11 3 -9 111 -26 143 -6 11 -16
33 -22 48 -11 28 -99 79 -131 75 -8 -1 -32 -3 -54 -5z"/>
<path d="M1970 3311 c0 -6 5 -13 10 -16 6 -3 10 1 10 9 0 9 -4 16 -10 16 -5 0
-10 -4 -10 -9z"/>
<path d="M2184 3274 c-18 -14 -18 -14 6 -3 31 14 36 19 24 19 -6 0 -19 -7 -30
-16z"/>
<path d="M2790 3275 c-7 -8 -17 -12 -23 -8 -6 3 -7 1 -3 -5 11 -18 24 -14 36
8 13 24 8 26 -10 5z"/>
<path d="M2844 3268 c-5 -7 -3 -8 6 -3 7 4 16 2 21 -6 4 -7 11 -10 14 -7 10
10 -4 28 -20 28 -8 0 -17 -5 -21 -12z"/>
<path d="M2223 3252 l-52 -3 20 -42 c10 -23 23 -41 29 -39 5 1 10 -10 10 -24
0 -24 66 -190 79 -198 3 -2 3 55 0 127 -3 73 -2 136 2 141 16 19 29 -8 29 -62
0 -50 3 -59 22 -67 13 -6 29 -23 36 -38 8 -16 16 -26 19 -23 8 8 -30 66 -47
71 -12 4 -17 20 -19 56 -4 98 -17 107 -128 101z"/>
<path d="M2976 3246 c3 -9 11 -16 16 -16 13 0 5 23 -10 28 -7 2 -10 -2 -6 -12z"/>
<path d="M3037 3224 c-13 -49 -17 -78 -8 -65 7 11 11 10 19 -5 6 -10 14 -15
18 -11 4 4 -1 13 -10 20 -16 12 -17 17 -6 36 8 15 8 27 2 33 -7 7 -12 4 -15
-8z"/>
<path d="M4782 3215 c0 -16 2 -22 5 -12 2 9 2 23 0 30 -3 6 -5 -1 -5 -18z"/>
<path d="M4890 3170 c-36 -16 -69 -31 -75 -33 -5 -2 -7 -7 -4 -11 7 -7 159 59
159 68 0 10 -12 6 -80 -24z"/>
<path d="M2772 3163 c-9 -3 -10 -9 -2 -17 5 -7 13 -42 17 -77 7 -61 7 -62 14
-26 5 31 -6 130 -14 126 -1 0 -8 -3 -15 -6z"/>
<path d="M2976 3097 c-27 -45 -33 -77 -17 -77 6 0 13 4 16 10 3 5 17 -2 30
-18 20 -22 24 -24 25 -9 0 9 -4 17 -8 17 -4 0 -9 26 -10 57 -1 31 -4 59 -6 61
-2 2 -16 -16 -30 -41z"/>
<path d="M3046 3121 c5 -5 52 -21 104 -34 52 -14 127 -35 165 -46 39 -12 79
-23 90 -25 11 -3 51 -14 88 -26 38 -12 74 -19 80 -17 11 4 -34 19 -188 63
-358 102 -357 102 -339 85z"/>
<path d="M4845 3110 c-51 -7 -128 -41 -141 -61 -5 -8 -9 -7 -14 2 -7 10 -12
10 -22 1 -8 -6 -87 -37 -177 -68 l-162 -56 -55 15 c-53 15 -54 15 -54 -5 0
-12 -7 -30 -17 -40 -18 -20 -4 -25 15 -6 9 9 12 -14 12 -107 0 -93 3 -116 12
-107 17 17 39 15 32 -3 -8 -20 -6 -19 93 11 47 14 93 34 104 45 10 10 22 19
27 19 6 -1 25 81 19 86 -1 1 -36 20 -77 43 -46 25 -69 42 -60 45 8 3 67 24
130 46 63 23 129 46 145 53 30 13 95 2 95 -14 0 -4 13 -22 29 -40 25 -27 28
-36 20 -57 -7 -18 -6 -29 6 -42 8 -9 15 -28 15 -42 0 -23 3 -25 28 -19 55 12
65 25 54 62 -6 19 -14 48 -19 64 -6 20 -16 31 -32 33 -18 3 -22 8 -17 27 4 14
1 25 -6 27 -16 6 26 65 52 73 11 4 20 11 20 16 0 5 -1 8 -2 8 -2 -1 -26 -5
-53 -9z"/>
<path d="M4950 3111 c0 -6 5 -13 10 -16 6 -3 10 1 10 9 0 9 -4 16 -10 16 -5 0
-10 -4 -10 -9z"/>
<path d="M2410 3100 c0 -5 5 -10 11 -10 5 0 7 5 4 10 -3 6 -8 10 -11 10 -2 0
-4 -4 -4 -10z"/>
<path d="M4721 3094 c0 -11 3 -14 6 -6 3 7 2 16 -1 19 -3 4 -6 -2 -5 -13z"/>
<path d="M2440 3089 c0 -7 90 -32 96 -26 2 2 -19 10 -46 18 -28 9 -50 12 -50
8z"/>
<path d="M5568 3093 c6 -2 18 -2 25 0 6 3 1 5 -13 5 -14 0 -19 -2 -12 -5z"/>
<path d="M3629 3069 c24 -23 28 -23 28 -5 0 8 -11 16 -24 19 -24 4 -24 4 -4
-14z"/>
<path d="M2645 3063 c-58 -7 -131 -24 -197 -45 -74 -23 -72 -20 -70 -113 1
-17 0 -17 -4 -2 -6 19 -13 21 -31 9 -10 -6 -9 -17 4 -50 16 -41 32 -55 34 -29
0 6 4 3 9 -8 6 -17 2 -23 -27 -36 -19 -9 -31 -19 -26 -22 5 -3 15 -2 23 4 30
18 37 8 44 -53 6 -50 15 -75 47 -121 21 -32 39 -66 39 -76 0 -9 14 -33 30 -51
17 -18 30 -40 30 -48 0 -11 8 -13 31 -8 17 3 35 6 40 6 5 0 9 10 10 23 1 22 1
21 8 -2 6 -24 56 -69 66 -60 2 3 -18 29 -45 59 -47 51 -50 58 -80 184 -33 139
-34 141 -45 253 l-7 73 34 34 c21 21 56 41 91 52 31 10 57 21 57 26 0 8 -10 8
-65 1z"/>
<path d="M2742 3045 c0 -16 2 -22 5 -12 2 9 2 23 0 30 -3 6 -5 -1 -5 -18z"/>
<path d="M2343 2995 c0 -44 3 -65 11 -62 6 2 11 15 12 28 0 13 4 32 8 41 11
24 3 52 -15 56 -13 2 -16 -8 -16 -63z"/>
<path d="M5019 2980 c-3 -132 0 -145 47 -248 44 -95 143 -262 155 -262 14 0
98 99 87 102 -10 4 -10 13 -1 40 10 33 9 37 -14 47 -14 6 -23 17 -20 24 12 37
-104 193 -163 217 -17 7 -30 20 -30 29 0 30 -20 86 -40 111 l-20 25 -1 -85z"/>
<path d="M4901 3018 c5 -10 11 -18 13 -18 2 0 6 8 8 18 4 12 -1 18 -13 18 -14
0 -15 -4 -8 -18z"/>
<path d="M95 2995 c17 -14 35 -25 40 -25 6 0 -3 11 -20 25 -16 13 -34 24 -40
24 -5 0 4 -11 20 -24z"/>
<path d="M13 3003 c-7 -3 -13 -12 -13 -21 0 -15 2 -15 17 1 18 18 16 27 -4 20z"/>
<path d="M5354 2985 c-4 -8 -4 -22 0 -30 7 -20 36 -8 36 15 0 23 -29 35 -36
15z"/>
<path d="M5430 2989 c0 -5 5 -7 10 -4 6 3 10 8 10 11 0 2 -4 4 -10 4 -5 0 -10
-5 -10 -11z"/>
<path d="M4110 2972 c0 -12 19 -26 26 -19 2 2 -2 10 -11 17 -9 8 -15 8 -15 2z"/>
<path d="M5611 2958 c9 -7 14 -19 12 -25 -3 -7 7 -17 21 -23 34 -12 34 -32 1
-24 -14 3 -25 2 -25 -4 0 -5 23 -16 51 -22 35 -9 53 -18 56 -31 3 -10 9 -16
14 -13 11 6 12 135 2 132 -9 -2 -96 10 -128 18 -18 4 -18 4 -4 -8z"/>
<path d="M2910 2944 c0 -8 5 -12 10 -9 6 4 8 11 5 16 -9 14 -15 11 -15 -7z"/>
<path d="M991 2936 c-17 -9 -20 -15 -11 -21 7 -4 21 1 33 14 24 24 14 27 -22
7z"/>
<path d="M5439 2943 c-1 -5 -1 -11 0 -15 2 -11 -47 -10 -69 2 -10 6 -21 6 -24
2 -2 -4 15 -14 39 -21 40 -12 45 -11 64 8 12 12 21 23 21 26 0 8 -30 6 -31 -2z"/>
<path d="M5490 2921 c0 -5 7 -11 15 -15 8 -3 12 -11 10 -18 -4 -9 8 -14 39
-16 31 -1 45 2 50 13 4 12 -4 15 -38 15 -30 0 -46 5 -50 15 -6 16 -26 21 -26
6z"/>
<path d="M5462 2899 c2 -7 10 -15 17 -17 8 -3 12 1 9 9 -2 7 -10 15 -17 17 -8
3 -12 -1 -9 -9z"/>
<path d="M3628 2893 c7 -3 16 -2 19 1 4 3 -2 6 -13 5 -11 0 -14 -3 -6 -6z"/>
<path d="M4100 2880 c-9 -16 -8 -20 5 -20 8 0 15 9 15 20 0 11 -2 20 -5 20 -2
0 -9 -9 -15 -20z"/>
<path d="M4660 2880 c0 -5 5 -10 10 -10 6 0 10 5 10 10 0 6 -4 10 -10 10 -5 0
-10 -4 -10 -10z"/>
<path d="M322 2854 c10 -10 20 -15 24 -12 3 4 -5 12 -18 18 -22 12 -22 12 -6
-6z"/>
<path d="M3753 2855 c17 -19 17 -19 35 0 16 18 16 18 0 6 -15 -11 -21 -11 -35
0 -17 12 -17 12 0 -6z"/>
<path d="M4665 2838 c10 -32 25 -46 25 -24 0 13 5 16 21 11 15 -5 19 -4 15 4
-4 6 -14 11 -22 11 -8 0 -14 5 -14 10 0 6 -7 10 -16 10 -11 0 -14 -6 -9 -22z"/>
<path d="M295 2820 c10 -11 28 -20 39 -20 17 0 18 2 6 10 -8 5 -10 10 -5 10
18 1 -20 20 -39 20 -18 0 -18 -1 -1 -20z"/>
<path d="M1913 2808 c-17 -20 -19 -35 -18 -113 3 -111 2 -106 20 -99 17 7 21
35 4 32 -6 -2 -14 3 -16 10 -3 6 3 12 13 12 14 0 16 7 10 53 -4 28 -7 61 -9
71 -1 10 4 21 12 24 11 4 13 -3 8 -32 -7 -43 8 -39 18 5 6 24 9 28 21 18 11
-9 14 -8 14 4 0 15 -28 37 -48 37 -5 0 -18 -10 -29 -22z"/>
<path d="M4880 2790 c-6 -11 -7 -20 -2 -20 6 0 12 9 15 20 3 11 3 20 1 20 -2
0 -8 -9 -14 -20z"/>
<path d="M5681 2797 c32 -26 69 -47 69 -40 0 9 -52 43 -66 43 -4 0 -5 -1 -3
-3z"/>
<path d="M5735 2790 c3 -5 8 -10 11 -10 2 0 4 5 4 10 0 6 -5 10 -11 10 -5 0
-7 -4 -4 -10z"/>
<path d="M5433 2763 c-4 -10 -9 -11 -18 -3 -16 14 -28 -2 -19 -25 4 -9 12 -14
20 -11 7 3 30 8 51 11 30 5 34 4 20 -5 -9 -6 -15 -16 -12 -21 4 -5 10 -7 14
-4 5 2 16 -4 26 -15 10 -11 22 -17 27 -14 5 3 16 0 25 -8 15 -12 15 -11 4 10
-12 22 -11 23 8 13 l21 -12 -21 36 c-29 48 -5 47 39 -2 18 -21 31 -32 27 -25
-7 13 7 17 19 5 8 -8 46 -15 46 -8 0 11 -45 45 -60 45 -9 0 -27 9 -40 20 -26
23 -24 22 -108 25 -46 1 -65 -2 -69 -12z"/>
<path d="M4900 2726 c-32 -67 -100 -118 -100 -75 0 6 4 8 9 5 5 -3 11 2 13 12
5 17 4 17 -31 1 -20 -10 -45 -19 -56 -21 -16 -2 -32 -35 -78 -163 -53 -144
-57 -164 -49 -200 l10 -40 1 42 c1 49 37 97 95 128 23 13 36 27 36 40 0 21
-20 59 -20 39 0 -7 -7 -14 -15 -18 -8 -3 -14 -2 -13 2 1 4 -2 20 -7 35 -5 19
-3 32 5 40 10 9 11 9 6 0 -7 -13 5 -17 33 -13 9 1 12 -4 7 -17 -10 -25 76 60
127 126 37 48 42 52 47 32 9 -39 25 -18 22 29 -5 64 -16 68 -42 16z m-131
-107 c-19 -12 -49 -11 -49 0 0 10 40 20 54 13 4 -3 2 -8 -5 -13z"/>
<path d="M3061 2706 c-18 -82 -61 -124 -118 -117 -13 2 -17 -11 -14 -36 1 -7
-7 -13 -19 -13 -20 0 -24 10 -22 58 1 12 -3 22 -7 22 -5 0 -8 -16 -7 -36 1
-19 -2 -41 -6 -47 -5 -8 -8 -5 -9 8 l0 20 -9 -20 c-8 -18 -9 -18 -9 -2 -1 10
-5 15 -11 12 -5 -3 -10 0 -10 9 0 8 6 17 13 19 6 3 -2 3 -18 1 -34 -6 -80 23
-96 60 -6 16 -8 12 -5 -19 2 -22 8 -53 15 -68 6 -16 11 -30 11 -33 0 -2 9 -13
21 -25 17 -17 25 -19 52 -10 56 18 94 21 157 13 59 -9 61 -8 74 17 16 32 40
187 34 221 -3 18 -8 9 -17 -34z m-111 -136 c0 -5 -5 -10 -11 -10 -5 0 -7 5 -4
10 3 6 8 10 11 10 2 0 4 -4 4 -10z"/>
<path d="M2870 2721 c0 -17 5 -31 10 -31 6 0 10 11 10 24 0 14 -4 28 -10 31
-6 4 -10 -7 -10 -24z"/>
<path d="M2686 2715 c8 -37 14 -45 14 -19 0 10 -5 26 -10 34 -8 11 -9 7 -4
-15z"/>
<path d="M956 2706 c-18 -28 -20 -36 -8 -36 10 0 35 50 29 57 -2 2 -12 -8 -21
-21z"/>
<path d="M1467 2723 c-11 -10 -8 -43 3 -43 6 0 10 11 10 25 0 26 -2 29 -13 18z"/>
<path d="M1405 2710 c-3 -5 -2 -10 4 -10 5 0 13 5 16 10 3 6 2 10 -4 10 -5 0
-13 -4 -16 -10z"/>
<path d="M4638 2703 c7 -3 16 -2 19 1 4 3 -2 6 -13 5 -11 0 -14 -3 -6 -6z"/>
<path d="M1950 2683 c0 -6 5 -24 11 -40 12 -32 25 -98 33 -166 4 -34 2 -50
-10 -61 -8 -9 -12 -22 -8 -28 3 -7 -5 0 -19 15 l-26 29 -3 -39 c-2 -22 -7 4
-11 62 -11 137 -20 148 -27 35 -4 -61 -13 -110 -25 -137 -19 -43 -42 -60 -30
-24 7 23 -2 48 -18 48 -7 0 -23 3 -35 7 -21 7 -23 5 -18 -12 4 -11 2 -23 -3
-26 -6 -4 -7 -14 -4 -24 5 -14 4 -15 -8 -6 -8 6 -23 14 -34 17 -15 5 -13 1 9
-19 24 -21 37 -25 70 -22 23 3 50 1 61 -3 20 -7 98 8 123 24 6 5 12 26 12 47
0 22 5 51 12 65 9 19 9 43 0 98 -10 65 -50 189 -52 160z"/>
<path d="M2875 2670 c-3 -5 -1 -10 4 -10 6 0 11 5 11 10 0 6 -2 10 -4 10 -3 0
-8 -4 -11 -10z"/>
<path d="M3200 2620 c0 -53 15 -65 40 -35 11 13 10 22 -3 50 -23 49 -37 43
-37 -15z"/>
<path d="M996 2646 c3 -9 11 -16 16 -16 13 0 5 23 -10 28 -7 2 -10 -2 -6 -12z"/>
<path d="M4668 2633 c6 -2 18 -2 25 0 6 3 1 5 -13 5 -14 0 -19 -2 -12 -5z"/>
<path d="M2211 2580 c0 -32 4 -61 11 -68 17 -17 19 -42 2 -42 -8 0 -14 9 -14
21 0 18 -2 19 -15 5 -9 -9 -12 -22 -8 -33 7 -17 6 -17 -11 0 -28 28 -39 21
-33 -20 4 -21 11 -39 17 -41 22 -8 9 -32 -17 -33 -28 0 -28 -1 -5 -11 22 -11
31 -38 12 -38 -5 0 -9 -5 -7 -12 1 -6 -13 -16 -30 -21 -18 -5 -33 -16 -33 -23
0 -8 1 -14 3 -14 1 0 22 6 47 14 33 10 46 19 48 35 4 25 47 39 73 22 25 -15
42 -14 36 3 -7 16 14 37 61 61 19 9 31 19 28 22 -3 3 -12 0 -21 -7 -9 -7 -15
-8 -15 -2 0 6 12 20 28 32 15 12 20 18 12 14 -10 -5 -9 0 4 14 26 30 4 28 -31
-2 l-28 -24 -37 27 c-43 29 -49 45 -15 32 13 -5 30 -5 38 -1 9 6 1 11 -29 16
-23 4 -44 9 -46 13 -2 3 -1 27 3 53 6 38 5 46 -5 37 -9 -7 -14 -5 -17 8 -3 10
-5 -7 -6 -37z"/>
<path d="M4087 2609 c-6 -23 11 -69 25 -69 5 0 4 10 -3 21 -6 12 -9 32 -6 45
5 30 -9 32 -16 3z"/>
<path d="M914 2605 c-4 -9 -2 -33 5 -52 7 -19 12 -58 11 -86 -3 -69 -2 -77 11
-77 7 0 8 34 3 108 -6 106 -17 143 -30 107z"/>
<path d="M2851 2584 c0 -11 3 -14 6 -6 3 7 2 16 -1 19 -3 4 -6 -2 -5 -13z"/>
<path d="M4530 2586 c-22 -22 -156 -64 -229 -72 l-64 -7 5 -101 c5 -93 9 -107
46 -181 23 -44 37 -84 32 -90 -10 -13 -36 -108 -44 -160 -4 -30 -1 -49 14 -73
11 -18 20 -49 20 -70 0 -56 12 -67 40 -37 30 32 36 31 55 -5 14 -27 14 -36 -1
-93 -11 -42 -14 -80 -9 -119 4 -36 2 -65 -6 -79 -8 -16 -8 -20 0 -14 8 5 10
-2 5 -22 -7 -30 -34 -66 -34 -45 0 8 -11 9 -32 5 -52 -9 -66 -20 -90 -71 -12
-26 -23 -50 -25 -53 -2 -3 8 -11 22 -17 94 -43 134 -282 60 -352 l-24 -23 -41
42 c-36 37 -44 41 -90 41 -41 0 -50 -3 -50 -17 0 -10 -17 -28 -40 -40 -41 -24
-70 -29 -70 -13 0 6 -7 10 -15 10 -8 0 -15 9 -15 19 0 14 8 21 28 24 15 2 -3
5 -40 6 -64 1 -71 4 -125 45 -57 44 -74 46 -54 7 6 -11 11 -47 11 -80 0 -34 3
-60 8 -59 4 2 35 -8 68 -20 58 -22 64 -23 92 -8 37 19 53 20 50 3 -4 -16 -48
-49 -140 -103 -75 -44 -77 -46 -71 -77 3 -18 8 -140 10 -272 4 -271 7 -283 87
-369 l44 -46 904 0 c793 1 901 2 884 15 -11 8 -17 17 -14 21 4 3 16 -4 27 -15
12 -12 23 -21 26 -21 3 0 5 259 5 575 l0 575 -35 17 c-26 13 -34 21 -28 32 4
9 9 50 10 91 6 198 14 259 34 265 18 6 19 22 19 419 l0 414 -31 6 c-43 8 -51
8 -44 -3 3 -5 1 -12 -4 -16 -13 -7 -4 -34 21 -61 15 -17 18 -35 16 -93 -1 -66
-4 -74 -29 -92 -15 -10 -51 -24 -80 -29 -64 -12 -142 -13 -135 -1 3 4 -1 17
-9 27 -8 10 -15 38 -15 61 0 42 0 42 -30 33 -19 -5 -28 -5 -25 1 8 13 4 12
-38 -10 -29 -15 -33 -20 -21 -25 9 -4 14 -9 11 -12 -6 -6 -93 37 -192 95 l-70
42 -27 -33 c-35 -41 -36 -55 -2 -33 35 22 39 14 22 -39 -8 -25 -13 -68 -11
-96 3 -46 11 -69 42 -120 25 -39 39 -81 34 -100 -4 -14 0 -20 11 -20 21 0 21
0 -19 -60 -19 -29 -35 -65 -35 -80 0 -16 -3 -35 -6 -44 -11 -28 12 -17 53 25
l40 40 22 -36 c15 -26 37 -43 78 -61 32 -14 73 -32 91 -39 17 -8 32 -19 32
-25 0 -16 -78 -68 -166 -111 -97 -47 -111 -49 -56 -9 41 29 52 53 32 65 -15 9
-12 48 4 71 10 13 11 23 4 31 -7 9 -7 13 0 13 6 0 9 7 6 15 -5 11 -10 13 -19
5 -9 -7 -15 -8 -19 -1 -8 12 -34 4 -61 -19 -11 -10 -30 -21 -42 -25 -13 -3
-23 -11 -23 -16 0 -5 -4 -9 -9 -9 -5 0 -27 -18 -49 -41 -43 -43 -77 -49 -77
-14 0 11 -5 25 -12 30 -18 16 -30 97 -26 167 6 84 -9 139 -52 183 -19 20 -27
34 -20 31 8 -3 15 -1 15 4 0 6 -8 10 -19 10 -14 0 -20 10 -25 39 -4 28 -17 48
-46 74 -21 20 -35 39 -30 42 8 5 -71 95 -84 95 -4 0 -4 -12 -1 -27 l5 -28 -12
28 c-10 24 -17 27 -57 27 -26 0 -60 -4 -78 -9 -36 -10 -47 2 -29 31 8 13 6 22
-7 36 -17 19 -17 25 3 139 11 66 20 123 20 126 0 4 18 12 40 18 22 7 40 18 40
26 0 16 -2 16 -20 -1z m1115 -506 c-3 -5 -11 -10 -16 -10 -6 0 -7 5 -4 10 3 6
11 10 16 10 6 0 7 -4 4 -10z m-255 -160 c0 -12 -29 -20 -35 -10 -9 15 4 30 20
23 8 -3 15 -9 15 -13z m100 10 c0 -5 -4 -10 -10 -10 -5 0 -10 5 -10 10 0 6 5
10 10 10 6 0 10 -4 10 -10z m20 -81 c0 -5 -6 -9 -14 -9 -8 0 -16 -6 -19 -12
-2 -7 -8 -10 -12 -6 -10 10 25 49 36 42 5 -3 9 -9 9 -15z m-304 -337 c1 -7 0
-8 -3 -2 -2 5 -9 8 -14 4 -5 -3 -9 0 -9 6 0 15 23 7 26 -8z m274 -396 c0 -3
-4 -8 -10 -11 -5 -3 -10 -1 -10 4 0 6 5 11 10 11 6 0 10 -2 10 -4z m-94 -623
c-7 -8 -56 9 -51 18 3 4 17 3 30 -3 14 -6 23 -13 21 -15z m-38 -113 c29 -7 50
-16 47 -21 -4 -5 1 -6 9 -3 8 3 31 1 50 -6 l35 -11 -66 -45 c-82 -55 -94 -57
-24 -4 30 21 55 40 56 42 2 2 -12 3 -31 4 -18 0 -42 8 -52 17 -10 9 -27 17
-38 18 -10 0 -35 7 -54 15 -37 15 -29 14 68 -6z m-18 -144 c0 -2 -8 -10 -17
-17 -16 -13 -17 -12 -4 4 13 16 21 21 21 13z m240 -31 c0 -14 -4 -25 -10 -25
-5 0 -6 8 -3 17 5 13 2 15 -13 10 -19 -7 -19 -7 0 8 26 19 26 19 26 -10z m-70
-25 c0 -5 -2 -10 -4 -10 -3 0 -8 5 -11 10 -3 6 -1 10 4 10 6 0 11 -4 11 -10z
m102 -50 c6 0 9 -3 6 -6 -10 -9 -45 14 -52 33 -6 14 -2 13 14 -4 11 -13 26
-23 32 -23z m-152 26 c0 -2 -7 -7 -16 -10 -8 -3 -12 -2 -9 4 6 10 25 14 25 6z
m-45 -25 c-6 -10 -93 -61 -104 -61 -6 0 100 69 107 70 2 0 1 -4 -3 -9z m299
-57 c3 -8 2 -12 -4 -9 -6 3 -10 10 -10 16 0 14 7 11 14 -7z m-250 -19 c-4 -8
-8 -15 -10 -15 -2 0 -4 7 -4 15 0 8 4 15 10 15 5 0 7 -7 4 -15z m46 -15 c0 -5
-2 -10 -4 -10 -3 0 -8 5 -11 10 -3 6 -1 10 4 10 6 0 11 -4 11 -10z m50 -21 c0
-5 -20 -9 -45 -9 -59 0 -59 15 0 16 25 1 45 -2 45 -7z"/>
<path d="M1468 2584 c-4 -3 -14 -7 -24 -8 -14 -2 -21 -15 -26 -47 -7 -41 -25
-65 -67 -89 -14 -8 -14 -14 3 -64 11 -31 27 -63 37 -72 18 -16 17 -17 -3 -34
-15 -12 -21 -27 -20 -53 1 -20 -3 -39 -8 -42 -6 -4 -8 -10 -5 -15 3 -5 -1 -26
-10 -46 l-15 -37 33 6 c26 4 36 1 46 -15 11 -18 19 -20 58 -14 25 3 52 11 60
17 24 21 77 20 170 -2 l92 -22 77 21 c42 12 81 19 86 16 4 -3 8 1 8 9 0 8 -7
18 -16 21 -9 4 -14 13 -10 21 7 19 8 19 -39 -5 -22 -11 -46 -20 -54 -20 -17 0
28 28 97 61 24 11 41 23 39 26 -3 2 -19 -3 -36 -12 -17 -8 -31 -11 -31 -6 0 5
6 12 13 14 6 3 0 6 -15 6 -15 1 -30 -4 -33 -9 -4 -7 -13 -7 -26 0 -16 9 -19 7
-19 -11 0 -21 -36 -89 -47 -89 -3 0 -14 10 -25 23 -11 12 -17 17 -14 11 14
-29 -115 -27 -160 3 -32 20 -64 114 -64 186 -1 34 -7 96 -15 137 -9 41 -17 88
-20 104 -6 33 -9 39 -17 30z"/>
<path d="M2116 2575 c4 -8 8 -15 10 -15 2 0 4 7 4 15 0 8 -4 15 -10 15 -5 0
-7 -7 -4 -15z"/>
<path d="M323 2526 c-164 -83 -153 -59 -104 -217 23 -74 46 -142 51 -151 6
-10 10 -28 10 -40 1 -13 9 -57 19 -98 15 -61 22 -76 39 -78 11 -2 26 -10 34
-19 11 -14 10 -15 -10 -9 -12 4 -22 5 -22 3 0 -8 109 -76 181 -112 l73 -37 26
29 c22 24 30 27 55 20 23 -6 54 0 135 27 58 20 89 33 70 31 -103 -16 -153 -18
-146 -7 4 7 16 12 27 12 11 0 31 11 45 25 21 21 24 32 22 87 -1 35 2 71 7 81
5 12 1 25 -12 40 -11 12 -28 45 -37 73 -29 90 -106 138 -237 150 -41 4 -77 12
-81 17 -8 13 -24 173 -20 205 2 12 -2 22 -7 22 -5 0 -58 -24 -118 -54z m387
-313 c13 -14 14 -23 5 -50 -13 -42 -30 -42 -55 0 l-20 32 21 18 c26 21 28 21
49 0z m-376 -21 c-13 -10 -15 -16 -6 -19 6 -3 12 -11 12 -19 0 -8 7 -14 15
-14 8 0 15 -4 15 -9 0 -5 7 -17 16 -25 9 -9 11 -16 4 -16 -6 0 -8 -5 -5 -11 4
-6 -3 -21 -16 -35 -17 -18 -25 -21 -36 -13 -10 9 -13 8 -14 -2 0 -8 -7 6 -14
30 -14 45 -19 86 -16 131 1 20 3 22 12 10 9 -13 11 -13 22 2 6 9 15 14 21 11
5 -3 0 -13 -10 -21z m492 -94 c4 -6 2 -14 -4 -16 -7 -2 -10 -8 -6 -13 3 -5 1
-9 -4 -9 -6 0 -9 11 -8 25 1 27 10 32 22 13z m-391 -8 c3 -5 -1 -10 -10 -10
-9 0 -13 5 -10 10 3 6 8 10 10 10 2 0 7 -4 10 -10z m360 -50 c3 -6 -1 -7 -9
-4 -18 7 -21 14 -7 14 6 0 13 -4 16 -10z m-414 -63 c-1 -12 -15 -9 -19 4 -3 6
1 10 8 8 6 -3 11 -8 11 -12z m172 -47 c-3 -12 -8 -19 -11 -16 -5 6 5 36 12 36
2 0 2 -9 -1 -20z"/>
<path d="M1921 2534 c0 -11 3 -14 6 -6 3 7 2 16 -1 19 -3 4 -6 -2 -5 -13z"/>
<path d="M2465 2530 c3 -5 8 -10 11 -10 2 0 4 5 4 10 0 6 -5 10 -11 10 -5 0
-7 -4 -4 -10z"/>
<path d="M5321 2524 c0 -11 3 -14 6 -6 3 7 2 16 -1 19 -3 4 -6 -2 -5 -13z"/>
<path d="M1705 2513 c4 -10 13 -38 20 -63 9 -30 14 -37 14 -21 1 33 -20 101
-32 101 -5 0 -6 -8 -2 -17z"/>
<path d="M1938 2491 c-3 -18 2 -38 13 -52 17 -23 17 -22 8 26 -11 59 -15 65
-21 26z"/>
<path d="M3128 2434 c-56 -63 -56 -63 -73 -41 -10 14 -14 16 -11 6 2 -9 0 -21
-5 -26 -7 -7 -3 -12 11 -16 15 -4 34 7 72 41 43 40 76 88 66 97 -2 2 -29 -26
-60 -61z"/>
<path d="M3842 2480 c0 -14 2 -19 5 -12 2 6 2 18 0 25 -3 6 -5 1 -5 -13z"/>
<path d="M5476 2476 c5 -14 54 -19 54 -6 0 4 -10 10 -22 14 -33 9 -38 7 -32
-8z"/>
<path d="M3437 2473 c-4 -3 -7 -15 -7 -25 0 -11 -7 -33 -16 -49 -8 -17 -13
-33 -10 -36 3 -3 13 10 22 30 18 37 55 62 89 58 17 -1 16 1 -5 13 -26 16 -62
20 -73 9z"/>
<path d="M3586 2458 c-17 -10 -16 -12 14 -24 39 -17 41 -15 33 14 -6 24 -18
27 -47 10z"/>
<path d="M5230 2454 c1 -16 28 -45 34 -36 3 5 -3 17 -14 27 -11 10 -20 14 -20
9z"/>
<path d="M2032 2415 c-18 -21 7 -21 34 0 19 14 19 14 -1 14 -11 0 -26 -6 -33
-14z"/>
<path d="M3673 2416 c0 -8 3 -14 6 -14 3 1 19 -4 34 -10 35 -15 47 -15 47 -2
0 6 -8 10 -18 10 -10 0 -27 7 -38 15 -24 18 -31 19 -31 1z"/>
<path d="M5526 2413 c-6 -14 -5 -15 5 -6 7 7 10 15 7 18 -3 3 -9 -2 -12 -12z"/>
<path d="M3848 2380 c-4 -43 2 -49 26 -24 20 19 20 31 2 50 -21 20 -23 18 -28
-26z"/>
<path d="M2778 2397 c-13 -30 -10 -36 32 -57 22 -11 40 -17 40 -12 0 4 -13 13
-29 19 -22 8 -30 18 -33 39 -2 24 -4 26 -10 11z"/>
<path d="M4794 2339 c-24 -49 -32 -75 -25 -82 7 -7 12 -1 17 19 4 16 13 39 21
50 14 23 35 84 27 84 -2 0 -20 -32 -40 -71z"/>
<path d="M1260 2379 c0 -5 5 -7 10 -4 6 3 10 8 10 11 0 2 -4 4 -10 4 -5 0 -10
-5 -10 -11z"/>
<path d="M2050 2360 c-18 -12 -2 -12 25 0 13 6 15 9 5 9 -8 0 -22 -4 -30 -9z"/>
<path d="M2520 2362 c0 -10 21 -32 32 -32 16 0 8 19 -12 30 -11 6 -20 7 -20 2z"/>
<path d="M2891 2361 c-8 -5 -9 -11 -3 -15 5 -3 15 1 22 9 14 16 3 20 -19 6z"/>
<path d="M3261 2358 c1 -7 5 -24 9 -38 7 -22 8 -21 9 13 1 20 -3 37 -9 37 -5
0 -10 -6 -9 -12z"/>
<path d="M2955 2350 c-3 -5 1 -10 9 -10 8 0 18 5 21 10 3 6 -1 10 -9 10 -8 0
-18 -4 -21 -10z"/>
<path d="M2435 2333 c-8 -10 -20 -26 -28 -36 -12 -17 -15 -17 -51 12 -21 17
-44 31 -50 31 -6 0 -4 -5 4 -10 8 -5 11 -10 5 -10 -5 0 -3 -4 5 -10 12 -8 12
-10 -3 -16 -26 -10 -20 -23 11 -22 58 2 127 -15 150 -37 12 -13 57 -36 100
-53 95 -38 100 -39 99 -27 -1 6 -8 8 -16 7 -13 -3 -13 -1 -2 12 9 11 10 16 2
16 -6 0 -11 5 -11 11 0 6 7 9 15 5 17 -6 21 9 4 19 -6 4 -16 -1 -23 -11 -11
-14 -22 -16 -60 -11 -56 8 -90 30 -111 75 -9 17 -20 32 -26 32 -6 0 -6 7 1 20
13 25 5 26 -15 3z"/>
<path d="M3313 2320 c-1 -17 2 -30 7 -30 12 0 23 37 15 50 -11 18 -20 10 -22
-20z"/>
<path d="M2880 2310 c0 -13 11 -13 30 0 12 8 11 10 -7 10 -13 0 -23 -4 -23
-10z"/>
<path d="M1663 2303 c9 -2 25 -2 35 0 9 3 1 5 -18 5 -19 0 -27 -2 -17 -5z"/>
<path d="M2962 2293 c-18 -2 -30 -8 -27 -12 6 -10 53 -2 61 10 3 5 4 8 2 7 -2
0 -18 -3 -36 -5z"/>
<path d="M3690 2236 l18 -44 -46 -13 c-26 -7 -60 -14 -77 -14 -72 -3 -85 -6
-85 -19 0 -24 47 -27 110 -6 32 11 68 20 78 20 38 0 42 20 16 71 -30 61 -40
64 -14 5z"/>
<path d="M1185 2239 c-4 -19 -18 -56 -31 -83 -27 -54 -27 -90 0 -38 9 18 20
31 24 28 4 -2 12 7 19 20 8 18 8 24 0 24 -7 1 6 16 27 35 36 32 40 47 7 26
-10 -7 -19 -4 -27 7 -10 14 -13 11 -19 -19z"/>
<path d="M1586 2251 c-10 -11 -16 -25 -15 -30 2 -6 12 3 21 19 20 35 18 38 -6
11z"/>
<path d="M1974 2261 c5 -7 11 -10 14 -7 3 3 11 1 19 -6 10 -8 17 -8 25 0 9 9
8 12 -2 12 -8 0 -26 3 -39 7 -18 4 -22 3 -17 -6z"/>
<path d="M3260 2266 c0 -2 7 -6 15 -10 8 -3 15 -1 15 4 0 6 -7 10 -15 10 -8 0
-15 -2 -15 -4z"/>
<path d="M4118 2244 c-27 -14 -55 -21 -181 -45 -32 -6 -56 -13 -54 -16 10 -9
200 18 219 31 15 11 27 12 45 5 21 -8 24 -7 19 7 -3 8 -6 20 -6 25 0 12 -10
11 -42 -7z"/>
<path d="M20 2248 c0 -8 154 -157 158 -153 4 4 -4 12 -96 99 -34 32 -62 57
-62 54z"/>
<path d="M1847 2243 c-4 -3 -7 -11 -7 -17 0 -6 5 -5 12 2 6 6 9 14 7 17 -3 3
-9 2 -12 -2z"/>
<path d="M4113 2203 c4 -6 20 -16 37 -21 24 -9 30 -8 30 4 0 7 -6 14 -12 14
-7 0 -24 3 -37 7 -16 4 -22 2 -18 -4z"/>
<path d="M5013 2187 c-22 -10 -31 -27 -15 -27 12 0 48 28 42 33 -3 2 -15 0
-27 -6z"/>
<path d="M3765 2173 c-38 -9 -37 -21 1 -13 76 16 80 18 49 18 -16 0 -39 -2
-50 -5z"/>
<path d="M4115 2170 c11 -5 27 -9 35 -9 13 -1 13 0 0 9 -8 5 -24 9 -35 9 l-20
0 20 -9z"/>
<path d="M3465 2150 c-3 -5 -2 -10 4 -10 5 0 13 5 16 10 3 6 2 10 -4 10 -5 0
-13 -4 -16 -10z"/>
<path d="M4160 2144 l-25 -14 28 0 c17 0 27 5 27 15 0 8 -1 15 -2 14 -2 -1
-14 -7 -28 -15z"/>
<path d="M968 2103 c-3 -44 -6 -50 -43 -70 -22 -12 -50 -27 -62 -33 -13 -5
-23 -12 -23 -14 0 -3 10 -2 23 3 12 5 32 5 44 0 14 -5 25 -4 29 2 4 7 10 7 18
0 6 -6 22 -9 35 -8 19 1 22 6 17 28 -3 14 -8 49 -12 78 -9 67 -22 74 -26 14z"/>
<path d="M5000 2134 c0 -8 5 -12 10 -9 6 4 8 11 5 16 -9 14 -15 11 -15 -7z"/>
<path d="M4961 2126 c-16 -19 -11 -29 8 -17 7 5 12 14 9 21 -3 9 -8 7 -17 -4z"/>
<path d="M4725 2120 c-3 -5 -1 -10 4 -10 6 0 11 5 11 10 0 6 -2 10 -4 10 -3 0
-8 -4 -11 -10z"/>
<path d="M190 2081 c0 -6 4 -13 10 -16 6 -3 7 1 4 9 -7 18 -14 21 -14 7z"/>
<path d="M1140 2069 c0 -5 5 -7 10 -4 6 3 10 8 10 11 0 2 -4 4 -10 4 -5 0 -10
-5 -10 -11z"/>
<path d="M2758 2064 c-16 -8 -28 -17 -28 -19 0 -6 52 16 65 27 15 13 -7 9 -37
-8z"/>
<path d="M1151 2046 c-8 -9 -8 -16 -2 -20 5 -4 12 -2 16 4 9 14 57 12 78 -4
19 -15 23 -41 7 -51 -13 -8 -13 -25 -1 -25 5 0 12 9 16 19 4 13 12 18 23 15 9
-4 -2 12 -25 35 -45 44 -90 54 -112 27z"/>
<path d="M4957 2046 c-4 -10 -1 -13 9 -9 15 6 19 23 5 23 -5 0 -11 -7 -14 -14z"/>
<path d="M4889 2034 c-12 -14 -10 -19 16 -40 34 -27 63 -39 73 -29 9 9 -9 35
-45 62 -28 21 -31 22 -44 7z"/>
<path d="M1295 2030 c3 -5 8 -10 11 -10 2 0 4 5 4 10 0 6 -5 10 -11 10 -5 0
-7 -4 -4 -10z"/>
<path d="M257 2009 c12 -12 24 -21 27 -18 2 2 -8 13 -22 23 l-27 19 22 -24z"/>
<path d="M3865 2000 c3 -5 11 -10 16 -10 6 0 69 -27 142 -60 l131 -60 43 17
c24 10 43 21 43 26 0 11 -7 9 -49 -13 -39 -19 -39 -19 -64 0 -28 22 -88 50
-188 86 -74 27 -83 28 -74 14z"/>
<path d="M4850 1991 c0 -6 4 -13 10 -16 6 -3 7 1 4 9 -7 18 -14 21 -14 7z"/>
<path d="M925 1960 c-3 -5 -1 -10 4 -10 6 0 11 5 11 10 0 6 -2 10 -4 10 -3 0
-8 -4 -11 -10z"/>
<path d="M977 1928 l-29 -41 29 7 c42 11 54 26 40 52 -12 21 -13 20 -40 -18z"/>
<path d="M1037 1963 c-4 -3 -7 -11 -7 -17 0 -6 5 -5 12 2 6 6 9 14 7 17 -3 3
-9 2 -12 -2z"/>
<path d="M1225 1920 c-15 -17 -16 -20 -3 -20 9 0 19 7 22 16 10 25 1 27 -19 4z"/>
<path d="M1166 1895 c-3 -8 -1 -15 4 -15 6 0 10 7 10 15 0 8 -2 15 -4 15 -2 0
-6 -7 -10 -15z"/>
<path d="M1070 1891 c-8 -3 -16 -14 -16 -23 -2 -19 21 -23 64 -12 29 8 28 24
-2 24 -13 0 -26 4 -28 9 -1 4 -10 6 -18 2z"/>
<path d="M2755 1881 c-6 -5 -21 -11 -35 -13 -13 -1 -29 -13 -36 -25 -8 -17
-13 -20 -22 -11 -9 9 -16 7 -29 -12 -9 -13 -25 -32 -35 -42 -10 -10 -18 -24
-18 -32 0 -8 -6 -21 -13 -28 -17 -16 -32 -88 -19 -88 11 0 3 -48 -9 -56 -10
-6 -12 -74 -2 -74 3 0 15 8 26 18 19 16 20 16 8 -5 -6 -12 -16 -25 -21 -28
-17 -10 -11 -51 13 -93 39 -69 131 -188 164 -213 17 -13 36 -34 42 -46 6 -13
19 -23 29 -23 10 0 26 -6 36 -13 17 -13 18 -14 2 -20 -10 -4 -15 -11 -11 -17
5 -9 107 -6 210 5 17 2 38 4 48 4 11 1 17 9 17 26 0 14 5 25 10 25 6 0 10 -4
10 -10 0 -5 5 -10 11 -10 7 0 9 12 7 30 -3 23 -1 30 9 26 9 -4 13 4 13 29 0
25 4 33 14 29 10 -4 12 2 8 23 -2 15 -5 102 -6 193 -2 196 -9 218 -93 296 -53
49 -112 78 -220 109 -12 3 -25 15 -28 26 -5 14 -13 19 -26 16 -10 -3 -17 -1
-13 4 7 12 -29 12 -41 0z m150 -320 c3 -5 1 -12 -5 -16 -5 -3 -10 1 -10 9 0
18 6 21 15 7z m-235 -171 c0 -5 -4 -10 -10 -10 -5 0 -10 5 -10 10 0 6 5 10 10
10 6 0 10 -4 10 -10z"/>
<path d="M870 1820 c-120 -29 -134 -36 -188 -89 -46 -47 -65 -106 -60 -194 3
-66 9 -86 49 -163 38 -73 45 -94 38 -118 -10 -35 -66 -85 -96 -86 -13 0 -23
-5 -23 -11 0 -6 7 -8 16 -5 15 6 15 4 1 -17 -13 -21 -23 -75 -17 -102 1 -5 1
-23 1 -40 -1 -16 3 -45 8 -63 7 -24 6 -40 -4 -60 -8 -15 -22 -52 -33 -82 l-20
-55 -12 28 c-7 15 -16 27 -19 27 -7 0 -80 -74 -133 -132 -23 -26 -51 -43 -91
-56 l-59 -19 -41 31 c-29 22 -42 40 -42 57 -1 13 -20 48 -42 77 -23 29 -45 62
-48 73 -4 12 -18 37 -31 56 l-24 36 0 -457 0 -456 470 0 c369 0 470 3 470 13
0 8 3 9 8 1 4 -6 31 -12 60 -13 l52 -2 0 32 c0 38 9 35 12 -4 1 -15 6 -27 9
-27 4 0 6 26 3 58 -3 40 -2 51 5 37 5 -11 11 -38 12 -60 2 -27 5 -16 9 35 l6
75 2 -67 c1 -37 7 -70 12 -73 6 -3 10 2 10 11 0 16 1 16 16 -2 14 -18 15 -17
12 19 -2 20 0 37 4 37 4 0 8 -10 8 -22 0 -13 5 -30 10 -38 6 -10 8 10 5 60 -4
61 -3 68 5 35 5 -22 9 -55 9 -73 l1 -33 59 2 c49 2 58 5 54 18 -4 13 -2 13 10
-2 13 -16 43 -17 410 -15 l397 3 -110 117 c-61 64 -110 119 -110 122 0 3 13 6
29 6 19 0 43 13 75 41 54 48 64 63 72 116 3 21 14 47 23 58 10 11 24 36 31 55
7 19 17 40 22 46 5 7 11 22 13 34 2 13 11 30 20 40 8 9 15 23 15 31 0 8 12 32
25 54 23 37 37 79 15 45 -8 -12 -10 -10 -11 10 -1 14 -1 29 0 33 2 13 -30 20
-41 9 -8 -8 -8 -15 2 -27 7 -8 8 -15 2 -15 -17 0 -20 22 -10 99 5 40 7 76 4
78 -2 3 -11 -17 -19 -44 l-15 -48 -1 43 c-1 50 -21 57 -21 7 0 -25 -4 -35 -16
-35 -10 0 -13 6 -9 19 3 12 0 21 -10 25 -8 3 -15 13 -15 21 0 9 -4 14 -9 10
-5 -3 -12 9 -14 27 -2 18 -4 4 -5 -32 -1 -57 9 -135 20 -145 2 -2 19 -6 39 -8
57 -5 63 -14 34 -49 -14 -16 -22 -35 -19 -40 4 -6 2 -8 -3 -5 -6 4 -14 0 -17
-9 -10 -25 -7 -36 7 -28 8 5 8 2 -2 -9 -15 -18 -26 -23 -16 -7 3 6 4 10 1 10
-3 0 -10 -9 -16 -19 -7 -14 -7 -22 2 -27 7 -5 8 -3 3 6 -5 9 -4 11 4 6 17 -11
3 -26 -17 -19 -16 6 -16 5 1 -14 23 -27 22 -40 -3 -18 -19 17 -21 16 -77 -38
-32 -30 -69 -64 -83 -75 -14 -11 -22 -23 -19 -27 4 -3 39 24 78 60 39 36 74
65 79 65 4 -1 -29 -34 -72 -75 -44 -41 -74 -75 -68 -75 6 0 42 29 81 65 97 89
103 82 8 -8 -60 -58 -83 -74 -108 -75 -47 -1 -48 -12 -1 -12 36 0 48 7 104 60
34 33 67 60 73 60 12 0 -121 -122 -144 -132 -33 -14 -67 -7 -111 22 -25 16
-52 30 -61 30 -9 0 -42 17 -75 39 -32 21 -96 60 -141 86 -46 26 -83 52 -83 57
0 5 24 -4 53 -21 94 -54 167 -91 167 -86 0 2 -18 14 -40 25 -22 11 -68 38
-102 60 -37 24 -68 38 -79 35 -9 -3 -21 -1 -25 6 -4 6 -54 34 -112 61 -57 27
-123 61 -146 77 -45 31 -76 44 -76 33 1 -4 20 -17 43 -28 265 -134 331 -174
314 -190 -4 -4 -17 2 -30 13 -22 20 -159 93 -174 93 -4 0 33 -22 82 -49 50
-27 101 -61 114 -75 30 -32 12 -34 -26 -3 -31 27 -155 97 -169 97 -5 0 25 -19
66 -41 41 -23 91 -56 110 -74 19 -17 80 -57 135 -89 115 -65 141 -83 132 -92
-4 -4 -24 4 -44 18 -21 14 -74 47 -118 73 -44 26 -102 64 -130 85 -57 42 -125
84 -125 77 0 -3 23 -20 52 -37 29 -18 73 -50 98 -71 26 -22 50 -39 54 -39 8 0
130 -71 183 -106 18 -12 29 -25 25 -28 -3 -4 0 -11 8 -16 23 -15 34 -12 20 5
-10 12 -10 15 0 15 10 0 10 3 0 15 -22 27 7 17 77 -25 37 -22 71 -40 77 -40
17 0 -25 26 -120 75 -77 40 -271 150 -283 161 -2 2 -2 7 2 10 3 4 51 -20 107
-52 55 -33 126 -73 158 -90 32 -16 80 -42 105 -58 26 -15 47 -23 47 -17 0 5
18 11 40 13 22 2 36 0 32 -3 -4 -4 -20 -9 -36 -11 -22 -2 -30 -9 -33 -28 -5
-33 -26 -52 -56 -52 -25 0 -77 28 -77 42 0 5 -15 13 -34 20 -18 6 -48 24 -67
41 -19 17 -43 35 -54 41 -11 6 -5 -3 14 -19 l35 -30 -27 -7 c-21 -5 -36 1 -68
24 -23 16 -47 30 -53 30 -6 0 8 -12 32 -26 63 -37 43 -42 -30 -7 -35 17 -75
35 -90 41 -19 8 -26 16 -22 27 3 8 1 15 -4 15 -6 0 -14 9 -17 21 -5 16 -10 18
-21 8 -8 -6 -14 -22 -14 -35 0 -21 -5 -24 -39 -24 -45 0 -141 45 -141 66 0 8
6 14 13 14 6 0 4 5 -7 11 -15 9 -16 13 -5 20 11 7 10 9 -3 9 -14 0 -18 -8 -18
-37 0 -51 -6 -38 -14 30 -6 57 -6 58 16 52 18 -4 16 -2 -6 11 -20 11 -25 18
-17 24 10 5 9 9 -3 13 -14 6 -15 -5 -11 -86 l4 -92 -12 82 c-7 45 -16 85 -21
90 -5 5 -6 -9 -2 -32 3 -22 8 -83 11 -135 4 -94 4 -94 -5 -25 -25 182 -43 291
-52 305 -10 16 -7 -15 12 -130 15 -90 29 -254 28 -320 -1 -41 -2 -45 -4 -15
-14 172 -51 431 -66 455 -9 15 -7 -5 13 -135 18 -115 28 -241 27 -335 -1 -82
-2 -73 -9 58 -4 84 -15 188 -23 230 -8 42 -18 96 -21 119 -4 24 -11 46 -17 49
-6 4 -8 -4 -4 -22 17 -77 37 -228 41 -304 l4 -85 -9 70 c-6 39 -16 108 -24
155 -8 47 -18 104 -21 128 -4 24 -9 41 -12 38 -3 -3 5 -76 17 -163 12 -88 20
-174 17 -193 -3 -31 -4 -30 -5 10 -2 48 -37 255 -52 305 -8 26 -8 24 -5 -15 3
-25 14 -108 24 -185 22 -161 25 -220 10 -192 -6 9 -7 22 -4 28 7 11 -45 353
-52 345 -7 -7 26 -274 38 -311 7 -20 6 -26 -1 -19 -12 12 -35 130 -45 234 -5
41 -10 69 -12 62 -3 -7 0 -65 6 -129 7 -64 10 -118 8 -120 -3 -2 -10 42 -16
99 -15 128 -32 195 -26 98 l4 -65 -13 60 c-11 47 -14 54 -16 30 -2 -25 -3 -26
-7 -7 -2 12 -8 22 -12 22 -24 0 -39 160 -30 325 4 68 5 70 32 71 15 1 27 -4
27 -10 0 -6 8 -2 16 9 15 19 15 19 9 -10 l-7 -30 22 30 c12 17 19 22 16 13 -3
-10 -9 -26 -12 -35 -3 -10 4 -3 16 15 32 48 36 32 6 -27 -25 -48 -37 -87 -14
-46 40 74 60 106 65 102 3 -3 -6 -25 -20 -49 -14 -24 -28 -54 -31 -68 -4 -14
7 0 23 30 16 30 39 64 51 75 15 14 9 -3 -20 -53 -23 -40 -40 -75 -38 -77 2 -2
18 22 36 54 34 62 62 94 62 71 0 -9 4 -9 17 1 15 13 13 15 -13 20 -16 4 -76 7
-134 8 -82 1 -101 4 -86 13 12 7 54 9 115 5 54 -3 87 -1 76 3 -11 5 -60 9
-110 10 -71 0 -86 3 -71 12 12 7 47 9 95 5 46 -3 68 -2 56 3 -11 5 -51 9 -88
9 -48 1 -66 4 -61 12 9 16 112 5 248 -26 150 -34 201 -41 192 -26 -4 6 -19 11
-34 11 -15 0 -92 14 -172 30 -80 16 -169 30 -197 30 -33 0 -53 4 -53 11 0 16
114 4 294 -32 125 -25 150 -28 160 -16 6 8 27 25 46 38 19 13 62 45 95 72 33
27 75 61 93 76 18 14 52 43 75 64 23 21 74 54 112 73 39 19 79 44 90 55 19 19
19 19 -5 19 -14 0 -40 -4 -58 -9 -42 -13 -41 -4 3 15 46 19 73 59 57 85 -7 10
-12 27 -12 36 0 29 -39 45 -112 48 -67 2 -68 1 -95 -34 -14 -20 -39 -48 -55
-63 -31 -30 -36 -48 -13 -48 22 0 95 -77 95 -99 0 -24 -173 -202 -220 -226
-19 -10 -49 -29 -66 -41 -17 -13 -33 -21 -37 -18 -3 3 -3 -3 0 -15 7 -27 -13
-27 -154 0 -103 20 -185 48 -99 34 33 -6 38 -4 32 10 -3 9 -6 18 -6 19 0 2
-20 -3 -45 -12 -48 -15 -135 -9 -135 10 0 16 61 106 76 112 8 3 14 11 14 18 0
7 9 23 18 36 15 19 20 21 29 10 6 -7 11 -17 12 -23 0 -5 7 -11 15 -13 10 -2
13 3 9 16 -2 11 0 23 6 26 6 4 8 18 5 30 -3 13 2 40 10 60 20 48 48 46 57 -4
5 -35 6 -35 16 -10 6 14 13 47 17 73 4 27 15 68 25 90 22 50 14 143 -15 193
-37 64 -171 106 -264 84z m-90 -640 c0 -22 -4 -28 -16 -23 -8 3 -13 12 -10 20
3 8 6 19 6 24 0 5 5 9 10 9 6 0 10 -13 10 -30z m-215 -510 c3 -5 1 -10 -4 -10
-6 0 -11 5 -11 10 0 6 2 10 4 10 3 0 8 -4 11 -10z m1019 -157 c56 -31 109 -65
118 -74 10 -10 34 -22 53 -28 19 -5 47 -18 62 -28 15 -11 37 -23 48 -28 25
-10 87 -6 99 6 6 5 15 9 20 9 6 -1 1 -9 -12 -20 -13 -10 -30 -16 -38 -13 -8 3
-21 0 -29 -7 -12 -10 -27 -5 -84 29 -38 22 -76 41 -85 41 -8 0 -17 4 -20 9 -3
5 -58 39 -121 76 -105 61 -139 85 -119 85 4 0 53 -26 108 -57z m506 -51 c0 -4
-24 -25 -52 -46 l-53 -38 47 46 c47 46 58 53 58 38z m-13 -49 c-9 -10 -31 -26
-49 -36 -32 -18 -32 -18 7 17 41 37 70 49 42 19z m-847 -23 c0 -5 -7 -10 -15
-10 -8 0 -15 5 -15 10 0 6 7 10 15 10 8 0 15 -4 15 -10z m17 -22 c-3 -8 -6 -5
-6 6 -1 11 2 17 5 13 3 -3 4 -12 1 -19z m823 7 c-19 -23 -70 -58 -76 -52 -4 4
74 67 84 67 3 0 -1 -7 -8 -15z m-880 -11 c0 -8 -5 -12 -10 -9 -6 4 -8 11 -5
16 9 14 15 11 15 -7z m39 -71 c-1 -66 -2 -73 -11 -48 -11 34 -12 76 -3 105 11
36 15 21 14 -57z m-72 35 c-3 -8 -6 -5 -6 6 -1 11 2 17 5 13 3 -3 4 -12 1 -19z
m863 -28 c-14 -10 -27 -16 -30 -13 -6 6 30 33 44 33 6 0 0 -9 -14 -20z m-47
-7 c-7 -2 -21 -2 -30 0 -10 3 -4 5 12 5 17 0 24 -2 18 -5z m-784 -65 l-1 -63
-10 49 c-8 46 -6 76 7 76 3 0 4 -28 4 -62z m-162 0 c-3 -7 -5 -2 -5 12 0 14 2
19 5 13 2 -7 2 -19 0 -25z m142 -68 c0 -45 -3 -59 -9 -45 -6 15 -9 7 -9 -30
-1 -36 -4 -46 -11 -35 -5 8 -9 47 -9 85 0 48 3 64 9 50 6 -15 9 -8 10 30 2 75
19 26 19 -55z m-172 18 c-2 -13 -4 -3 -4 22 0 25 2 35 4 23 2 -13 2 -33 0 -45z
m240 -15 c-3 -10 -5 -4 -5 12 0 17 2 24 5 18 2 -7 2 -21 0 -30z m-20 -25 c-2
-13 -4 -5 -4 17 -1 22 1 32 4 23 2 -10 2 -28 0 -40z m-270 -70 c-3 -8 -6 -5
-6 6 -1 11 2 17 5 13 3 -3 4 -12 1 -19z m20 0 c-3 -8 -6 -5 -6 6 -1 11 2 17 5
13 3 -3 4 -12 1 -19z"/>
<path d="M4366 1751 c-4 -7 -5 -15 -2 -18 9 -9 19 4 14 18 -4 11 -6 11 -12 0z"/>
<path d="M1916 1191 c-3 -4 6 -13 19 -19 14 -7 25 -16 25 -22 0 -16 26 -40 42
-40 7 0 30 -11 51 -25 20 -14 37 -21 37 -16 0 6 -14 18 -31 26 -16 9 -47 33
-68 54 -40 40 -67 55 -75 42z"/>
<path d="M1800 1144 c0 -10 -6 -14 -15 -10 -9 3 -15 0 -15 -9 0 -8 -6 -12 -14
-9 -11 4 -12 -3 -6 -38 5 -24 14 -56 21 -73 10 -26 13 -27 17 -10 6 31 34 56
57 53 11 -1 36 10 56 25 20 15 41 27 47 27 7 0 12 4 12 9 0 14 -30 22 -49 12
-10 -6 -23 -6 -32 -1 -7 5 -22 7 -31 4 -11 -3 -19 2 -23 16 -8 24 -25 27 -25
4z"/>
<path d="M1721 1104 c0 -11 3 -14 6 -6 3 7 2 16 -1 19 -3 4 -6 -2 -5 -13z"/>
<path d="M1677 1103 c-4 -3 -7 -11 -7 -17 0 -6 5 -5 12 2 6 6 9 14 7 17 -3 3
-9 2 -12 -2z"/>
<path d="M1701 1084 c-1 -17 6 -51 14 -75 9 -24 11 -39 5 -33 -5 5 -17 30 -25
55 -14 41 -15 42 -11 9 2 -19 8 -44 12 -55 5 -14 4 -17 -4 -10 -6 6 -18 37
-26 70 -8 33 -15 51 -15 40 -1 -11 5 -44 13 -74 8 -31 9 -48 3 -42 -6 6 -16
37 -24 68 l-13 58 4 -50 c2 -27 7 -59 11 -70 5 -12 4 -17 -1 -12 -5 5 -14 27
-21 50 -9 34 -11 37 -12 15 -1 -15 3 -38 9 -52 5 -15 6 -26 0 -26 -4 0 -14 26
-20 58 -7 31 -14 62 -16 67 -6 14 4 -85 11 -115 5 -21 5 -22 -5 -8 -6 10 -14
40 -17 68 -3 27 -9 50 -13 50 -8 0 5 -103 15 -119 3 -6 2 -11 -3 -11 -5 0 -16
28 -25 63 -14 54 -16 56 -11 17 3 -25 7 -56 10 -70 4 -20 3 -22 -5 -8 -6 9
-15 40 -20 70 -7 43 -9 46 -10 18 0 -19 3 -52 8 -73 12 -50 0 -38 -16 16 l-13
42 5 -49 c6 -64 -4 -53 -21 21 -11 50 -13 52 -11 18 2 -31 -2 -40 -15 -43 -11
-2 -18 3 -18 12 0 9 -5 16 -11 16 -5 0 -7 5 -4 10 3 6 0 10 -7 10 -7 0 -2 10
12 21 24 20 24 21 3 16 -13 -3 -23 -1 -23 4 0 5 -4 9 -8 9 -4 0 -8 -12 -7 -27
0 -16 -4 -31 -10 -35 -6 -4 -1 -8 10 -8 16 -1 13 -4 -10 -15 l-30 -14 35 5
c31 4 33 3 13 -7 -30 -16 -53 -6 -46 20 4 18 1 21 -23 21 -23 0 -26 2 -14 10
9 6 10 10 3 10 -6 0 -19 3 -28 7 -14 5 -16 2 -10 -16 4 -13 8 -34 10 -48 2
-24 1 -25 -44 -18 -25 3 -55 9 -65 12 -19 5 -19 5 0 -14 10 -10 38 -32 62 -47
23 -16 42 -32 42 -37 0 -5 6 -6 13 -3 8 3 42 -22 78 -55 76 -71 148 -131 157
-131 4 0 -29 36 -73 80 -43 44 -76 83 -72 86 4 4 47 10 95 12 l87 4 100 67
100 66 -18 50 c-15 43 -17 45 -13 15 2 -19 8 -44 12 -55 5 -14 4 -17 -4 -10
-6 6 -18 37 -26 70 -11 45 -15 52 -15 29z m-364 -100 c-3 -3 -12 -4 -19 -1 -8
3 -5 6 6 6 11 1 17 -2 13 -5z m133 -34 c0 -5 -8 -10 -17 -10 -15 0 -16 2 -3
10 19 12 20 12 20 0z m-55 -10 c-3 -5 -18 -10 -33 -9 l-27 1 25 8 c35 11 42
11 35 0z m-90 -10 c-3 -5 -14 -10 -23 -10 -15 0 -15 2 -2 10 20 13 33 13 25 0z
m-45 -10 c0 -5 -7 -10 -15 -10 -8 0 -15 5 -15 10 0 6 7 10 15 10 8 0 15 -4 15
-10z m123 -7 c-7 -2 -19 -2 -25 0 -7 3 -2 5 12 5 14 0 19 -2 13 -5z m-76 -9
c-3 -3 -12 -4 -19 -1 -8 3 -5 6 6 6 11 1 17 -2 13 -5z m73 -14 c0 -5 -5 -10
-11 -10 -5 0 -7 5 -4 10 3 6 8 10 11 10 2 0 4 -4 4 -10z"/>
<path d="M1075 1084 c23 -9 155 -30 155 -25 0 7 -119 31 -147 30 -10 0 -13 -2
-8 -5z"/>
<path d="M1601 1074 c0 -11 3 -14 6 -6 3 7 2 16 -1 19 -3 4 -6 -2 -5 -13z"/>
<path d="M2120 1051 c0 -6 5 -11 11 -11 6 0 9 -6 6 -12 -3 -9 6 -14 26 -15 16
-1 28 -1 26 1 -38 29 -69 45 -69 37z"/>
<path d="M363 980 c-9 -46 0 -70 13 -35 4 8 10 13 14 10 8 -5 -4 63 -13 71 -2
3 -9 -18 -14 -46z"/>
<path d="M1338 1013 c7 -3 16 -2 19 1 4 3 -2 6 -13 5 -11 0 -14 -3 -6 -6z"/>
<path d="M301 994 c0 -11 3 -14 6 -6 3 7 2 16 -1 19 -3 4 -6 -2 -5 -13z"/>
<path d="M1065 1000 c11 -5 29 -8 40 -8 16 0 15 2 -5 8 -34 11 -60 11 -35 0z"/>
<path d="M1435 1001 c-3 -5 -1 -12 5 -16 5 -3 10 1 10 9 0 18 -6 21 -15 7z"/>
<path d="M1175 975 c60 -16 103 -19 90 -6 -6 5 -39 11 -75 14 l-65 5 50 -13z"/>
<path d="M2315 963 l-17 -28 23 22 c12 12 20 25 17 28 -3 3 -13 -7 -23 -22z"/>
<path d="M477 940 c-3 -11 -1 -23 4 -26 5 -3 9 6 9 20 0 31 -6 34 -13 6z"/>
<path d="M1048 943 c-24 -27 -78 -116 -78 -127 0 -6 13 12 29 39 29 51 81 107
81 88 0 -5 -9 -18 -21 -29 -23 -21 -63 -93 -56 -101 3 -2 8 5 12 16 3 12 24
43 45 70 21 27 36 52 33 55 -11 11 -30 6 -45 -11z"/>
<path d="M998 918 c-29 -44 -59 -110 -54 -116 3 -3 6 -1 6 4 0 6 16 36 35 69
20 32 34 60 32 62 -3 2 -11 -7 -19 -19z"/>
<path d="M1093 917 c-25 -27 -63 -88 -63 -102 0 -5 10 6 21 25 12 19 33 47 47
62 14 15 23 30 20 33 -2 3 -14 -5 -25 -18z"/>
<path d="M1113 897 c-35 -36 -57 -76 -49 -85 3 -3 6 0 6 7 0 6 19 32 41 56 23
25 40 47 37 50 -2 3 -18 -10 -35 -28z"/>
<path d="M2236 904 c-4 -14 -5 -28 -3 -31 3 -2 8 8 11 23 4 14 5 28 3 31 -3 2
-8 -8 -11 -23z"/>
<path d="M1133 878 c-17 -18 -38 -47 -47 -65 -25 -51 -18 -53 10 -3 13 25 39
57 57 72 18 15 27 28 21 28 -5 0 -24 -15 -41 -32z"/>
<path d="M866 885 c-9 -26 -7 -32 5 -12 6 10 9 21 6 23 -2 3 -7 -2 -11 -11z"/>
<path d="M836 875 c-9 -26 -7 -32 5 -12 6 10 9 21 6 23 -2 3 -7 -2 -11 -11z"/>
<path d="M1190 886 c0 -3 9 -10 20 -16 11 -6 20 -8 20 -6 0 3 -9 10 -20 16
-11 6 -20 8 -20 6z"/>
<path d="M1176 862 c15 -14 104 -63 104 -58 0 6 -95 66 -105 66 -5 0 -5 -4 1
-8z"/>
<path d="M1190 818 c118 -67 156 -86 180 -92 14 -4 -2 6 -36 22 -33 16 -85 46
-115 66 -29 20 -61 36 -69 36 -8 0 10 -14 40 -32z"/>
<path d="M457 809 c-35 -29 -49 -59 -27 -59 6 0 10 5 10 10 0 6 6 10 13 10 19
1 57 36 57 54 0 23 -11 20 -53 -15z"/>
<path d="M1120 823 c0 -5 17 -16 38 -26 20 -10 78 -40 127 -67 103 -56 173
-90 188 -90 5 0 -46 28 -114 63 -68 35 -146 78 -173 95 -50 32 -66 38 -66 25z"/>
<path d="M2014 740 c-24 -53 -131 -125 -173 -116 l-26 6 29 -16 c32 -18 48
-13 104 33 l33 27 -18 -40 c-10 -21 -24 -43 -30 -47 -28 -18 -11 -26 22 -10
39 19 73 78 73 128 0 15 4 30 9 34 17 11 23 41 8 41 -7 0 -22 -18 -31 -40z"/>
<path d="M1100 763 c0 -5 18 -16 40 -25 52 -21 52 -14 0 12 -22 11 -40 17 -40
13z"/>
<path d="M1058 728 c-3 -7 -2 -22 3 -33 4 -11 8 -32 8 -47 1 -15 6 -30 12 -34
10 -6 9 14 -7 100 -5 25 -10 30 -16 14z"/>
<path d="M1120 726 c0 -3 9 -10 20 -16 11 -6 20 -8 20 -6 0 3 -9 10 -20 16
-11 6 -20 8 -20 6z"/>
<path d="M1094 713 c7 -13 118 -77 151 -88 11 -4 -14 12 -55 35 -41 23 -81 47
-89 53 -12 9 -13 9 -7 0z"/>
<path d="M1190 716 c0 -3 9 -10 20 -16 11 -6 20 -8 20 -6 0 3 -9 10 -20 16
-11 6 -20 8 -20 6z"/>
<path d="M1400 701 c8 -5 26 -12 40 -15 l25 -7 -25 15 c-14 9 -32 15 -40 15
-13 0 -13 -1 0 -8z"/>
<path d="M1170 696 c0 -3 9 -10 20 -16 11 -6 20 -8 20 -6 0 3 -9 10 -20 16
-11 6 -20 8 -20 6z"/>
<path d="M1100 676 c0 -3 9 -10 20 -16 11 -6 20 -8 20 -6 0 3 -9 10 -20 16
-11 6 -20 8 -20 6z"/>
<path d="M1177 629 c7 -7 15 -10 18 -7 3 3 -2 9 -12 12 -14 6 -15 5 -6 -5z"/>
<path d="M1491 636 c2 -2 15 -9 29 -15 24 -11 24 -11 6 3 -16 13 -49 24 -35
12z"/>
<path d="M1974 570 c-38 -39 -62 -53 -48 -27 4 7 3 9 -2 4 -5 -5 -9 -13 -9
-19 0 -6 -8 -16 -18 -22 -14 -8 -20 -8 -27 4 -5 8 -10 11 -10 5 0 -5 4 -16 9
-24 8 -12 15 -10 43 12 66 53 123 106 112 107 -6 0 -28 -18 -50 -40z"/>
<path d="M2040 603 c0 -4 -34 -37 -75 -72 -41 -36 -73 -67 -70 -69 5 -5 46 26
119 91 31 28 45 47 37 51 -6 4 -11 4 -11 -1z"/>
<path d="M1160 580 c8 -5 20 -10 25 -10 6 0 3 5 -5 10 -8 5 -19 10 -25 10 -5
0 -3 -5 5 -10z"/>
<path d="M1271 587 c2 -1 13 -9 24 -17 19 -14 19 -14 6 3 -7 9 -18 17 -24 17
-6 0 -8 -1 -6 -3z"/>
<path d="M1590 575 c0 -2 18 -14 40 -25 50 -25 53 -19 4 9 -36 22 -44 24 -44
16z"/>
<path d="M1221 557 c2 -2 18 -11 34 -21 l30 -17 -24 20 c-13 12 -28 21 -34 21
-6 0 -8 -1 -6 -3z"/>
<path d="M1325 553 c6 -5 30 -25 55 -43 33 -25 39 -27 23 -9 -12 13 -37 33
-55 43 -18 10 -28 15 -23 9z"/>
<path d="M1320 520 c40 -36 77 -59 66 -41 -4 6 -28 25 -54 42 l-47 30 35 -31z"/>
<path d="M1748 513 c7 -3 16 -2 19 1 4 3 -2 6 -13 5 -11 0 -14 -3 -6 -6z"/>
<path d="M1310 496 c0 -2 8 -10 18 -17 15 -13 16 -12 3 4 -13 16 -21 21 -21
13z"/>
<path d="M1760 493 c0 -5 12 -9 27 -10 19 -1 22 1 12 8 -17 11 -39 12 -39 2z"/>
<path d="M1720 461 c14 -11 30 -21 35 -21 11 0 -7 14 -40 31 -13 7 -12 3 5
-10z"/>
<path d="M1210 460 c8 -5 20 -10 25 -10 6 0 3 5 -5 10 -8 5 -19 10 -25 10 -5
0 -3 -5 5 -10z"/>
<path d="M1768 463 c6 -2 18 -2 25 0 6 3 1 5 -13 5 -14 0 -19 -2 -12 -5z"/>
<path d="M1810 460 c0 -5 14 -7 33 -3 45 8 47 13 4 13 -20 0 -37 -4 -37 -10z"/>
<path d="M2301 443 c21 -25 68 -44 85 -35 12 7 2 14 -41 29 -42 16 -53 17 -44
6z"/>
<path d="M1477 439 c11 -11 113 -60 113 -54 0 4 -108 65 -117 65 -4 0 -2 -5 4
-11z"/>
<path d="M1790 432 c8 -3 27 -14 43 -24 15 -11 27 -15 27 -9 0 5 12 12 28 14
18 3 12 5 -18 6 -26 1 -40 5 -33 9 8 5 -2 8 -25 9 -20 0 -30 -2 -22 -5z"/>
<path d="M1486 401 c11 -10 74 -32 74 -26 0 3 -13 11 -30 20 -32 16 -60 21
-44 6z"/>
<path d="M2428 394 c12 -8 22 -24 22 -35 0 -13 7 -19 21 -19 18 0 19 -2 9 -15
-7 -8 -15 -13 -19 -11 -4 3 -8 -4 -8 -15 -2 -21 13 -26 20 -6 2 6 8 0 12 -15
8 -30 23 -35 44 -15 11 10 12 8 6 -10 -7 -25 4 -29 35 -13 15 8 17 7 12 -12
-3 -14 -1 -19 6 -14 6 3 18 -4 27 -16 l17 -23 -7 25 c-10 32 -18 44 -86 118
-31 34 -61 62 -68 62 -7 0 -19 7 -27 15 -9 8 -21 15 -27 15 -6 0 -1 -7 11 -16z"/>
<path d="M1570 366 c0 -3 15 -15 33 -27 23 -17 28 -18 18 -6 -14 18 -51 42
-51 33z"/>
<path d="M1750 325 c0 -2 23 -16 50 -30 28 -14 50 -23 50 -20 0 2 -22 16 -50
30 -27 14 -50 23 -50 20z"/>
<path d="M2631 154 c0 -11 3 -14 6 -6 3 7 2 16 -1 19 -3 4 -6 -2 -5 -13z"/>
<path d="M2634 81 c5 -7 1 -20 -7 -29 -7 -9 -17 -25 -20 -34 -5 -14 -1 -18 18
-18 22 0 25 4 25 39 0 22 -5 43 -12 47 -7 5 -8 3 -4 -5z"/>
</g>
</svg>
