<?xml version="1.0" standalone="no"?>
<!DOCTYPE svg PUBLIC "-//W3C//DTD SVG 20010904//EN"
 "http://www.w3.org/TR/2001/REC-SVG-20010904/DTD/svg10.dtd">
<svg version="1.0" xmlns="http://www.w3.org/2000/svg"
 width="316.000000pt" height="108.000000pt" viewBox="0 0 316.000000 108.000000"
 preserveAspectRatio="xMidYMid meet">

<g transform="translate(0.000000,108.000000) scale(0.100000,-0.100000)"
fill="#000000" stroke="none">
<path d="M2788 955 c-76 -28 -184 -124 -297 -262 -24 -29 -51 -53 -61 -53 -10
0 -27 -8 -39 -17 -18 -15 -20 -23 -12 -49 13 -45 -7 -75 -60 -91 -58 -17 -54
-18 -77 22 l-21 34 -46 -13 c-60 -19 -145 -84 -181 -139 l-29 -44 -28 21 c-25
19 -42 21 -140 20 l-112 -1 45 20 c33 15 64 20 119 19 40 -1 76 -4 79 -7 9 -9
32 17 32 38 0 46 -72 60 -169 31 -63 -18 -64 -26 -1 -14 25 5 49 5 53 0 5 -4
-2 -7 -16 -7 -36 -1 -98 -23 -91 -34 3 -5 -3 -12 -13 -15 -10 -3 -30 -12 -45
-20 -21 -12 -28 -12 -28 -3 0 10 -3 10 -12 1 -15 -15 -32 -16 -23 -2 4 6 32
24 63 40 31 17 46 28 32 24 -37 -9 -98 -45 -104 -61 -3 -8 2 -26 11 -40 16
-24 19 -25 92 -18 42 3 87 9 101 12 53 12 3 -15 -60 -32 -79 -21 -268 -84
-292 -96 -10 -6 -18 -7 -18 -3 0 14 165 272 230 360 35 48 43 51 259 88 78 14
149 30 159 36 15 10 15 10 -4 5 -11 -3 -78 -12 -148 -20 -70 -8 -145 -18 -168
-21 l-40 -7 51 82 c28 46 51 86 51 90 0 4 -11 18 -24 31 -27 25 -53 22 -58 -7
-2 -10 -28 -60 -58 -110 l-55 -93 -75 -15 c-41 -9 -83 -18 -93 -20 -18 -4 -18
-3 0 17 18 20 18 20 -17 13 -68 -15 -80 -23 -80 -54 0 -46 20 -56 82 -37 50
16 83 26 136 41 22 6 21 2 -18 -67 -71 -125 -199 -398 -186 -398 2 0 13 15 24
34 16 27 33 38 83 55 35 11 91 25 124 31 33 5 85 17 115 25 30 9 78 17 105 20
28 2 64 7 80 10 28 6 31 4 43 -29 7 -19 21 -36 30 -39 28 -6 124 48 169 95 83
86 111 108 143 108 l31 0 -19 -27 c-10 -16 -36 -58 -56 -96 -31 -55 -36 -70
-26 -82 29 -35 82 -6 86 46 1 9 25 58 53 108 l52 91 57 16 c31 8 63 17 70 19
20 7 15 -8 -33 -98 -55 -102 -127 -266 -123 -278 2 -5 26 33 55 84 28 50 70
119 93 152 22 33 54 81 71 108 l31 47 76 1 c43 1 88 5 102 10 16 6 -9 7 -72 4
-54 -2 -98 -1 -98 3 1 4 13 22 29 39 24 29 39 35 125 53 54 12 101 19 103 16
3 -3 -4 -21 -16 -41 -33 -56 -25 -55 13 0 33 50 34 51 110 63 41 7 78 17 81
21 2 5 -15 5 -38 0 -23 -4 -58 -8 -78 -9 l-37 0 19 61 c23 74 24 111 4 153
-29 61 -97 80 -177 51z m159 -76 c14 -38 9 -116 -11 -164 -13 -30 -17 -32
-101 -44 -48 -7 -89 -10 -92 -8 -2 3 16 39 41 80 25 42 46 80 46 86 0 6 -9 20
-20 31 l-21 21 23 19 c58 49 113 41 135 -21z m-219 -82 c-20 -29 -45 -72 -57
-95 -24 -47 -38 -57 -101 -67 -43 -7 -44 -7 -29 11 9 11 25 30 35 43 63 78
171 177 182 166 3 -2 -11 -29 -30 -58z m-129 -231 c-13 -27 -21 -31 -102 -41
l-48 -6 16 24 c9 14 28 27 43 30 15 3 43 10 62 15 19 5 36 8 38 7 1 -1 -3 -14
-9 -29z m-406 -131 c-44 -59 -215 -176 -228 -156 -15 25 21 68 128 150 17 14
66 28 100 30 18 1 18 0 0 -24z m23 -17 c-3 -23 -17 -38 -33 -38 -13 0 -12 5 7
25 27 29 29 30 26 13z m-56 -54 c0 -3 -7 -12 -15 -20 -8 -9 -15 -12 -15 -8 0
5 -5 3 -12 -4 -7 -7 -16 -12 -21 -12 -4 0 5 11 20 25 27 24 43 31 43 19z"/>
<path d="M870 807 c-25 -51 -27 -52 -80 -59 -30 -4 -95 -14 -145 -23 -49 -8
-107 -17 -127 -20 -29 -5 -38 -11 -38 -25 0 -11 10 -25 22 -31 27 -14 118 -6
150 14 12 8 47 18 77 21 l53 7 -23 -33 c-13 -18 -58 -82 -102 -141 -43 -60
-103 -146 -133 -193 -30 -46 -59 -84 -64 -84 -6 0 -10 -6 -10 -14 0 -9 -24
-17 -76 -25 -42 -7 -105 -21 -141 -31 -37 -10 -72 -16 -80 -13 -20 8 -16 -27
4 -43 21 -16 99 -19 108 -4 3 6 14 10 24 10 10 0 32 7 47 15 34 17 133 39 141
31 4 -3 -2 -6 -13 -6 -16 0 -17 -2 -4 -10 13 -8 13 -10 -2 -10 -9 0 -20 -5
-23 -10 -4 -6 3 -8 17 -6 13 3 31 5 41 5 9 1 17 8 17 16 0 8 6 15 13 15 6 1
55 3 107 6 166 9 174 9 230 2 l55 -7 -45 21 c-30 14 -91 26 -190 37 l-147 16
43 65 c23 36 43 69 43 73 1 5 8 15 16 24 9 8 40 52 69 97 29 44 68 100 87 123
19 23 45 57 58 75 21 29 34 36 90 47 36 7 118 17 181 22 142 13 215 32 90 23
-47 -3 -136 -8 -198 -11 l-112 -5 10 27 c29 76 -4 87 -40 12z m-309 -490 c-10
-9 -11 -8 -5 6 3 10 9 15 12 12 3 -3 0 -11 -7 -18z m-38 -57 c-17 -30 -33 -39
-33 -20 0 8 39 50 47 50 2 0 -4 -13 -14 -30z m92 -60 c17 -6 13 -9 -20 -14
-22 -4 -48 -9 -57 -11 -22 -4 -22 -1 -2 19 17 17 47 20 79 6z"/>
<path d="M989 536 c-46 -35 -111 -89 -144 -120 -32 -31 -60 -56 -62 -56 -1 0
7 21 18 47 22 52 22 86 -1 91 -11 2 -19 -10 -27 -35 -6 -21 -25 -76 -41 -123
-28 -79 -29 -86 -14 -103 14 -16 18 -16 27 -4 6 8 54 62 106 119 53 56 113
123 135 147 21 25 53 57 69 73 51 47 22 31 -66 -36z"/>
<path d="M1131 499 c-65 -26 -262 -194 -254 -216 3 -7 12 -13 19 -13 8 0 17
-7 20 -15 13 -32 45 -27 144 24 55 28 100 49 100 47 0 -3 -9 -20 -19 -38 -17
-29 -18 -35 -6 -52 14 -18 16 -17 58 25 57 58 189 170 195 164 2 -2 -19 -41
-47 -87 -28 -46 -51 -87 -51 -92 0 -5 19 16 42 45 23 30 62 76 85 103 42 47
49 68 37 100 -10 25 -33 19 -88 -22 -76 -57 -84 -60 -49 -17 24 28 29 41 20
47 -22 14 -57 9 -64 -9 -3 -10 -25 -45 -49 -79 -36 -52 -54 -66 -116 -97 -77
-37 -155 -64 -163 -55 -16 15 16 43 92 81 88 44 163 99 163 121 0 12 -31 47
-41 45 -2 0 -15 -5 -28 -10z m-12 -53 c-2 -2 -15 -9 -29 -15 -24 -11 -24 -11
-6 3 16 13 49 24 35 12z"/>
</g>
</svg>
