<?xml version="1.0" standalone="no"?>
<!DOCTYPE svg PUBLIC "-//W3C//DTD SVG 20010904//EN"
 "http://www.w3.org/TR/2001/REC-SVG-20010904/DTD/svg10.dtd">
<svg version="1.0" xmlns="http://www.w3.org/2000/svg"
 width="225.000000pt" height="225.000000pt" viewBox="0 0 225.000000 225.000000"
 preserveAspectRatio="xMidYMid meet">

<g transform="translate(0.000000,225.000000) scale(0.100000,-0.100000)"
fill="#000000" stroke="none">
<path d="M1403 1744 c-53 -19 -100 -67 -115 -116 -11 -36 -10 -40 18 -69 28
-29 32 -31 87 -25 70 7 104 24 146 71 79 90 -13 184 -136 139z"/>
<path d="M1074 1629 c-11 -6 -28 -26 -38 -44 -19 -34 -19 -86 0 -223 4 -29 0
-63 -11 -99 -17 -54 -17 -58 0 -89 20 -38 44 -49 95 -45 110 8 272 141 286
234 12 81 -114 215 -245 262 -50 17 -58 18 -87 4z"/>
<path d="M1560 1558 c-25 -13 -55 -38 -67 -57 -51 -77 -12 -131 94 -131 80 0
126 15 168 55 31 29 36 39 33 71 -4 53 -40 77 -121 82 -50 3 -71 -1 -107 -20z"/>
<path d="M1534 1336 c-77 -34 -95 -107 -41 -160 108 -105 336 -41 276 77 -35
67 -166 114 -235 83z"/>
<path d="M1293 1190 c-52 -21 -74 -110 -36 -152 37 -41 92 -60 156 -56 50 4
64 9 84 32 28 33 29 68 3 112 -37 58 -141 91 -207 64z"/>
<path d="M647 1030 c-93 -36 -145 -127 -98 -173 17 -17 33 -21 83 -21 73 0
130 25 172 74 45 54 27 111 -42 130 -49 13 -58 12 -115 -10z"/>
<path d="M294 913 c-23 -23 -44 -76 -44 -110 0 -14 7 -56 16 -91 15 -59 15
-68 -1 -118 -19 -60 -15 -94 15 -124 68 -68 319 52 365 175 17 43 17 45 -4 89
-30 60 -98 120 -184 162 -79 38 -136 44 -163 17z"/>
<path d="M838 866 c-57 -21 -87 -44 -105 -81 -41 -85 59 -136 193 -100 105 28
160 95 120 147 -33 44 -135 60 -208 34z"/>
<path d="M796 650 c-66 -20 -102 -89 -71 -136 56 -85 284 -91 315 -9 20 53
-34 113 -122 140 -57 17 -79 17 -122 5z"/>
<path d="M535 507 c-56 -26 -71 -96 -31 -144 30 -36 119 -66 167 -57 87 17
120 59 95 119 -30 71 -157 116 -231 82z"/>
</g>
</svg>
