<?xml version="1.0" standalone="no"?>
<!DOCTYPE svg PUBLIC "-//W3C//DTD SVG 20010904//EN"
 "http://www.w3.org/TR/2001/REC-SVG-20010904/DTD/svg10.dtd">
<svg version="1.0" xmlns="http://www.w3.org/2000/svg"
 width="216.000000pt" height="195.000000pt" viewBox="0 0 216.000000 195.000000"
 preserveAspectRatio="xMidYMid meet">

<g transform="translate(0.000000,195.000000) scale(0.100000,-0.100000)"
fill="#000000" stroke="none">
<path d="M1301 1607 c-14 -18 -41 -83 -41 -99 0 -7 9 6 20 30 11 24 24 41 28
38 5 -3 15 -26 22 -51 8 -28 16 -42 20 -34 17 26 90 -14 90 -49 0 -13 -7 -9
-25 12 -28 33 -31 32 -40 -7 -7 -27 8 -39 19 -14 3 8 11 5 25 -12 13 -14 21
-18 21 -10 0 11 2 11 10 -1 17 -26 11 6 -11 66 -14 37 -37 73 -66 101 -49 47
-55 50 -72 30z"/>
<path d="M1340 1420 c0 -16 4 -30 8 -30 5 0 7 14 4 30 -2 17 -6 30 -8 30 -2 0
-4 -13 -4 -30z"/>
<path d="M828 1403 c7 -3 16 -2 19 1 4 3 -2 6 -13 5 -11 0 -14 -3 -6 -6z"/>
<path d="M1379 1393 c-13 -15 -12 -15 9 -4 23 12 28 21 13 21 -5 0 -15 -7 -22
-17z"/>
<path d="M700 1390 c0 -5 4 -10 9 -10 5 0 18 -3 28 -6 16 -5 16 -4 -1 10 -23
18 -36 20 -36 6z"/>
<path d="M645 1380 c-4 -6 6 -10 22 -10 l28 -1 -30 -14 -30 -13 30 -1 c17 0
37 4 45 9 13 8 12 11 -5 24 -23 18 -51 20 -60 6z"/>
<path d="M860 1375 c-14 -17 0 -21 16 -5 7 7 22 6 47 -5 20 -8 37 -12 37 -7 0
8 -57 32 -77 32 -6 0 -16 -7 -23 -15z"/>
<path d="M1530 1380 c8 -5 22 -10 30 -10 13 0 13 1 0 10 -8 5 -22 10 -30 10
-13 0 -13 -1 0 -10z"/>
<path d="M1290 1371 c0 -9 52 -22 59 -15 6 6 -1 11 -31 18 -16 3 -28 2 -28 -3z"/>
<path d="M880 1360 c0 -5 5 -10 11 -10 5 0 7 5 4 10 -3 6 -8 10 -11 10 -2 0
-4 -4 -4 -10z"/>
<path d="M1593 1362 c-20 -13 43 -45 64 -34 14 8 12 12 -15 26 -36 18 -33 18
-49 8z m37 -12 c8 -5 12 -11 10 -14 -3 -2 -14 2 -24 10 -22 15 -10 19 14 4z"/>
<path d="M552 1353 c-16 -6 -5 -23 16 -23 15 0 15 2 2 11 -11 7 -4 8 25 5 31
-4 34 -4 15 3 -29 10 -40 11 -58 4z"/>
<path d="M1195 1346 c-24 -10 -26 -13 -12 -19 9 -3 17 -2 17 4 0 6 7 3 16 -5
21 -21 22 -20 16 9 -2 14 -5 25 -6 25 0 -1 -14 -7 -31 -14z"/>
<path d="M1427 1348 c-7 -18 15 -31 38 -22 22 9 18 27 -5 21 -10 -3 -21 0 -23
6 -2 6 -6 4 -10 -5z"/>
<path d="M956 1335 c-19 -14 -18 -15 10 -14 16 0 23 3 16 6 -6 2 -10 9 -6 14
7 12 2 11 -20 -6z"/>
<path d="M1275 1340 c3 -5 10 -10 16 -10 5 0 9 5 9 10 0 6 -7 10 -16 10 -8 0
-12 -4 -9 -10z"/>
<path d="M885 1330 c3 -5 11 -10 16 -10 6 0 7 5 4 10 -3 6 -11 10 -16 10 -6 0
-7 -4 -4 -10z"/>
<path d="M1530 1330 c8 -5 29 -9 45 -9 26 0 27 2 10 9 -11 5 -31 9 -45 9 -20
1 -22 -1 -10 -9z"/>
<path d="M1703 1331 c-42 -7 -76 -27 -68 -41 4 -6 32 -10 90 -13 11 0 50 3 88
7 77 9 76 10 52 -70 l-14 -49 19 23 c18 22 33 65 42 116 2 14 -5 22 -22 27
-31 9 -131 9 -187 0z m33 -49 c-6 -6 -56 10 -56 18 0 5 13 3 30 -3 16 -6 28
-13 26 -15z"/>
<path d="M603 1323 c9 -2 23 -2 30 0 6 3 -1 5 -18 5 -16 0 -22 -2 -12 -5z"/>
<path d="M1124 1315 c3 -8 0 -15 -6 -15 -6 0 -9 -2 -6 -5 3 -3 20 1 38 8 25
11 29 15 15 21 -29 11 -48 7 -41 -9z"/>
<path d="M1348 1323 c7 -3 16 -2 19 1 4 3 -2 6 -13 5 -11 0 -14 -3 -6 -6z"/>
<path d="M1048 1308 c6 -6 8 -16 6 -23 -3 -6 1 -17 9 -24 11 -9 17 -8 28 6 12
15 12 16 -3 10 -12 -4 -18 -2 -18 8 0 8 6 15 14 15 32 0 22 15 -11 17 -25 1
-33 -1 -25 -9z"/>
<path d="M1219 1294 c-1 -5 -1 -13 0 -18 1 -5 -6 -6 -15 -2 -10 4 -25 -1 -35
-10 -18 -17 -17 -34 2 -34 6 0 8 4 4 9 -3 5 -1 12 3 15 5 3 9 -5 8 -17 -1 -12
7 -35 18 -51 19 -28 19 -31 3 -75 -12 -33 -13 -49 -5 -56 8 -7 9 -5 5 8 -4 11
-1 17 8 17 8 0 15 5 15 11 0 8 5 8 15 -1 17 -14 21 0 5 16 -8 8 -7 19 0 39 9
24 7 31 -11 51 -12 13 -20 27 -16 30 9 9 27 -5 27 -22 0 -8 5 -14 11 -14 7 0
9 -15 5 -42 -4 -31 -3 -37 3 -23 5 11 10 14 10 7 1 -10 6 -10 23 -1 l22 12
-22 8 c-19 7 -24 18 -21 45 0 10 -49 44 -65 44 -9 0 -16 5 -16 10 0 6 9 10 19
10 11 0 22 4 26 10 3 5 12 7 20 3 8 -3 15 0 15 6 0 6 -6 11 -14 11 -8 0 -21 3
-30 6 -9 3 -17 2 -17 -2z"/>
<path d="M457 1272 c-13 -14 -15 -22 -7 -27 16 -10 33 9 28 30 -3 16 -5 15
-21 -3z"/>
<path d="M398 1255 c-16 -13 -24 -26 -19 -29 5 -3 11 1 15 9 3 9 12 12 23 9
14 -4 15 -4 4 4 -11 8 -11 10 0 14 8 3 12 8 9 11 -3 3 -17 -5 -32 -18z"/>
<path d="M976 1243 c-3 -16 -8 -75 -11 -133 -3 -57 -8 -107 -11 -109 -3 -3
-31 -5 -62 -5 -40 0 -49 -2 -32 -7 22 -6 22 -7 4 -8 -11 -1 -24 2 -28 6 -6 6
-46 13 -46 7 0 -1 8 -11 18 -20 16 -17 16 -18 -3 -10 -47 19 -59 20 -52 3 5
-12 1 -17 -13 -17 -11 0 -20 -6 -20 -13 0 -20 -50 -41 -64 -27 -5 5 -17 10
-25 10 -11 0 -10 -4 5 -15 23 -17 5 -20 -31 -3 -20 9 -28 9 -38 -2 -9 -10 -9
-11 0 -6 7 4 23 0 35 -9 23 -16 23 -16 -7 -10 -16 3 -24 2 -17 -1 17 -8 15
-27 -3 -20 -8 3 -15 1 -15 -3 0 -5 -14 -14 -31 -20 -38 -13 -42 -13 -35 -3 2
4 -10 8 -29 8 -29 0 -31 -2 -17 -13 20 -15 66 -17 90 -3 44 25 210 75 327 99
l131 27 3 144 c1 80 5 147 7 150 3 2 9 -2 13 -9 7 -11 10 -11 14 0 4 11 6 11
6 -1 1 -11 13 -15 44 -16 l42 0 -37 10 c-22 5 -40 17 -44 28 -3 12 -15 18 -34
18 -23 0 -29 -5 -34 -27z"/>
<path d="M1260 1250 c0 -5 5 -10 10 -10 6 0 10 5 10 10 0 6 -4 10 -10 10 -5 0
-10 -4 -10 -10z"/>
<path d="M1654 1245 c-4 -10 -13 -13 -24 -10 -22 7 -37 -12 -22 -27 8 -8 16
-6 27 6 9 9 23 16 30 16 8 0 17 4 20 10 4 6 -1 7 -11 3 -12 -4 -15 -3 -10 5 4
7 5 12 1 12 -3 0 -8 -7 -11 -15z"/>
<path d="M449 1220 c-1 -8 -3 -25 -4 -37 -1 -13 1 -23 5 -23 12 0 19 54 9 65
-6 5 -9 4 -10 -5z"/>
<path d="M347 1203 c-10 -9 -9 -23 2 -23 5 0 11 7 15 15 5 15 -5 20 -17 8z"/>
<path d="M1060 1200 c0 -5 6 -10 13 -10 20 0 38 -38 31 -65 -9 -38 -24 -30
-24 14 0 34 -4 40 -29 49 -30 11 -30 10 -36 -33 -4 -23 -5 -51 -2 -61 3 -11 6
1 7 26 l3 45 7 -49 c4 -33 2 -63 -7 -89 -8 -22 -11 -42 -8 -45 9 -9 25 20 25
46 0 13 4 20 10 17 13 -8 13 -2 -1 29 -7 14 -8 37 -4 53 6 25 8 26 17 9 5 -10
8 -28 6 -41 -3 -13 -1 -30 3 -37 7 -10 9 -9 9 5 0 9 4 17 9 17 5 0 4 -13 -2
-29 -6 -17 -15 -28 -19 -25 -4 3 -8 -3 -8 -13 0 -10 -9 -25 -20 -33 -11 -8
-20 -18 -20 -22 0 -4 37 -8 83 -8 l82 1 -26 23 c-24 21 -25 25 -12 47 14 23
14 23 10 2 -6 -25 16 -48 34 -37 9 5 10 2 6 -9 -5 -14 -2 -14 26 -3 18 8 39
16 47 19 8 3 -5 5 -29 4 -43 -2 -44 -1 -55 38 -8 26 -14 35 -18 25 -5 -12 -7
-12 -7 -1 -1 8 6 22 15 32 12 13 14 26 9 46 -7 26 -9 23 -22 -31 -9 -33 -24
-73 -35 -90 -18 -28 -19 -29 -14 -6 21 83 19 119 -8 160 -25 38 -46 52 -46 30z
m117 -180 c-3 -11 0 -20 6 -20 6 0 8 -3 4 -6 -11 -12 -25 6 -20 26 3 11 8 20
10 20 3 0 3 -9 0 -20z"/>
<path d="M360 1175 c-11 -13 -8 -15 15 -15 23 0 26 2 15 15 -7 8 -14 15 -15
15 -1 0 -8 -7 -15 -15z"/>
<path d="M1600 1175 c0 -8 7 -15 16 -15 14 0 14 3 4 15 -7 8 -14 15 -16 15 -2
0 -4 -7 -4 -15z"/>
<path d="M1405 1141 c19 -8 19 -8 0 -19 -16 -9 -17 -11 -4 -12 19 0 42 24 32
33 -3 4 -16 7 -27 6 -20 0 -20 -1 -1 -8z"/>
<path d="M304 1127 c-2 -7 -1 -24 5 -38 8 -21 9 -20 8 14 -1 39 -4 46 -13 24z"/>
<path d="M1336 1131 c-4 -5 3 -7 14 -4 23 6 26 13 6 13 -8 0 -17 -4 -20 -9z"/>
<path d="M1689 1128 c-7 -80 -7 -78 9 -62 13 13 13 17 1 24 -22 14 -3 23 23
10 21 -10 21 -10 6 3 -10 8 -18 19 -18 26 0 15 -20 14 -21 -1z"/>
<path d="M1281 1104 c-10 -12 -10 -19 -2 -27 8 -8 11 -7 11 2 0 8 8 20 18 27
14 11 14 13 2 13 -8 0 -21 -7 -29 -15z"/>
<path d="M1455 1110 c27 -12 35 -12 35 0 0 6 -12 10 -27 9 -25 0 -26 -1 -8 -9z"/>
<path d="M1316 1094 c-22 -21 -11 -35 23 -28 16 3 38 1 49 -5 11 -6 60 -12
108 -15 56 -3 76 -1 54 3 -30 7 -31 9 -10 11 18 1 12 5 -20 11 -25 5 -52 7
-60 4 -8 -3 -28 4 -45 15 -36 24 -78 26 -99 4z m189 -34 c3 -5 -3 -10 -14 -10
-12 0 -21 5 -21 10 0 6 6 10 14 10 8 0 18 -4 21 -10z"/>
<path d="M282 1048 c-7 -27 -8 -44 -2 -46 6 -2 10 -31 11 -65 1 -75 6 -65 11
21 3 38 1 57 -5 50 -5 -8 -6 6 -2 35 8 58 1 61 -13 5z"/>
<path d="M1600 1063 c0 -29 12 -63 21 -63 5 0 9 18 9 40 0 29 -4 40 -15 40 -8
0 -15 -8 -15 -17z"/>
<path d="M1755 1060 c3 -5 8 -10 11 -10 2 0 4 5 4 10 0 6 -5 10 -11 10 -5 0
-7 -4 -4 -10z"/>
<path d="M1330 1050 c0 -5 5 -10 10 -10 6 0 10 5 10 10 0 6 -4 10 -10 10 -5 0
-10 -4 -10 -10z"/>
<path d="M1735 1041 c17 -10 32 -17 34 -15 7 7 -33 33 -49 34 -8 0 -1 -8 15
-19z"/>
<path d="M1291 1036 c-16 -19 4 -42 26 -30 18 9 19 10 2 26 -14 13 -20 14 -28
4z"/>
<path d="M1375 1041 c17 -8 18 -10 3 -10 -10 -1 -18 -6 -18 -12 0 -7 10 -9 27
-4 47 11 46 20 -2 29 -24 5 -26 4 -10 -3z"/>
<path d="M1222 1028 c-15 -15 -15 -28 0 -28 6 0 8 3 5 7 -4 3 -2 12 4 20 14
16 7 17 -9 1z"/>
<path d="M1453 1023 c15 -2 37 -2 50 0 12 2 0 4 -28 4 -27 0 -38 -2 -22 -4z"/>
<path d="M1560 1026 c0 -2 9 -6 20 -9 11 -3 20 -1 20 4 0 5 -9 9 -20 9 -11 0
-20 -2 -20 -4z"/>
<path d="M1700 1020 c-12 -7 -12 -12 -2 -22 14 -14 35 1 24 19 -5 8 -13 9 -22
3z"/>
<path d="M1655 990 c27 -12 43 -12 25 0 -8 5 -22 9 -30 9 -10 0 -8 -3 5 -9z"/>
<path d="M1717 982 c-15 -6 -13 -9 13 -19 28 -10 29 -10 20 8 -6 10 -12 19
-13 18 -1 0 -10 -4 -20 -7z"/>
<path d="M267 923 c-4 -32 -6 -76 -5 -98 0 -36 1 -37 9 -15 7 19 8 16 4 -16
-4 -32 -1 -41 11 -41 11 0 13 7 8 31 -4 17 -7 45 -6 61 0 26 -1 27 -9 10 -6
-13 -7 5 -3 53 3 39 3 72 1 72 -3 0 -7 -26 -10 -57z"/>
<path d="M640 971 c0 -6 9 -9 19 -8 11 0 17 5 15 9 -7 11 -34 10 -34 -1z"/>
<path d="M312 945 c0 -16 2 -22 5 -12 2 9 2 23 0 30 -3 6 -5 -1 -5 -18z"/>
<path d="M1138 933 c7 -3 16 -2 19 1 4 3 -2 6 -13 5 -11 0 -14 -3 -6 -6z"/>
<path d="M1177 933 c-6 -10 90 -9 100 0 3 4 -17 7 -45 7 -28 0 -53 -3 -55 -7z"/>
<path d="M1293 925 c-15 -17 -17 -55 -3 -55 6 0 10 11 10 25 0 14 5 25 10 25
6 0 10 -8 10 -19 0 -10 14 -29 30 -43 42 -35 50 -86 19 -113 -15 -14 -23 -16
-26 -7 -3 6 -12 12 -20 12 -13 0 -13 -3 -2 -16 10 -13 10 -17 -1 -24 -9 -5
-20 -4 -28 3 -11 9 -13 6 -10 -13 3 -23 -1 -25 -57 -33 -33 -4 -70 -5 -82 -2
-13 3 -23 1 -23 -4 0 -5 10 -11 23 -15 18 -5 19 -8 7 -16 -8 -5 -22 -7 -31 -5
-20 7 -71 -19 -61 -30 4 -4 -26 -5 -65 -2 -43 3 -73 2 -73 -4 0 -5 -63 -9
-151 -9 -92 0 -148 4 -144 9 3 6 -11 13 -31 17 -24 4 -39 3 -44 -5 -5 -10 -16
-9 -46 4 -21 9 -60 17 -86 18 -27 1 -48 4 -48 7 0 12 43 30 60 25 10 -3 21 -1
25 4 3 6 0 8 -8 5 -8 -3 -18 0 -22 6 -5 8 -12 7 -24 -4 -23 -21 -81 -33 -81
-17 0 8 8 10 23 6 19 -5 20 -4 4 5 -18 12 -37 6 -37 -11 0 -25 271 -131 415
-163 192 -41 452 -40 634 4 99 24 106 27 90 46 -7 9 -9 29 -5 56 4 24 8 60 10
80 2 25 12 47 30 64 14 15 26 29 26 33 0 3 -15 13 -33 21 -26 12 -33 21 -35
52 -2 20 2 47 8 59 10 19 18 21 55 16 24 -4 83 -25 131 -47 48 -22 88 -40 90
-40 2 0 4 11 4 24 0 20 -8 27 -47 40 -138 44 -363 62 -390 31z m-700 -332 c-7
-2 -19 -2 -25 0 -7 3 -2 5 12 5 14 0 19 -2 13 -5z"/>
<path d="M1073 923 c9 -2 23 -2 30 0 6 3 -1 5 -18 5 -16 0 -22 -2 -12 -5z"/>
<path d="M930 900 c0 -12 17 -12 45 0 17 7 15 9 -12 9 -18 1 -33 -3 -33 -9z"/>
<path d="M869 892 c11 -8 11 -10 0 -15 -8 -2 -2 -4 13 -3 25 1 42 16 19 16 -5
0 -18 3 -28 6 -13 4 -15 3 -4 -4z"/>
<path d="M1100 879 c0 -5 5 -7 10 -4 6 3 10 8 10 11 0 2 -4 4 -10 4 -5 0 -10
-5 -10 -11z"/>
<path d="M1208 883 c6 -2 18 -2 25 0 6 3 1 5 -13 5 -14 0 -19 -2 -12 -5z"/>
<path d="M312 860 c0 -14 2 -19 5 -12 2 6 2 18 0 25 -3 6 -5 1 -5 -13z"/>
<path d="M760 871 c-23 -7 -23 -8 -5 -13 11 -3 6 -4 -11 -3 -17 2 -37 -1 -45
-6 -9 -5 14 -7 60 -4 41 2 79 9 85 15 7 7 3 10 -11 10 -12 0 -27 2 -35 4 -7 2
-24 1 -38 -3z"/>
<path d="M930 870 c11 -7 7 -10 -17 -10 -18 0 -33 -5 -33 -11 0 -7 9 -9 23 -5
12 3 30 6 40 6 9 0 17 7 17 15 0 9 -9 15 -22 15 -19 0 -20 -2 -8 -10z"/>
<path d="M996 871 c-3 -5 3 -11 15 -14 16 -4 18 -3 8 9 -13 16 -16 17 -23 5z"/>
<path d="M1260 850 c-13 -8 -12 -10 3 -10 9 0 17 5 17 10 0 12 -1 12 -20 0z"/>
<path d="M586 816 c-23 -11 -25 -14 -11 -19 9 -4 24 -7 33 -6 13 0 14 2 3 6
-10 4 -8 9 10 19 30 17 4 17 -35 0z"/>
<path d="M301 804 c0 -11 3 -14 6 -6 3 7 2 16 -1 19 -3 4 -6 -2 -5 -13z"/>
<path d="M400 810 c0 -5 8 -10 18 -10 15 -1 15 -2 -2 -15 -23 -18 -17 -19 20
-5 l28 11 -28 14 c-34 18 -36 18 -36 5z"/>
<path d="M1360 791 c0 -25 6 -27 13 -6 4 8 2 17 -3 20 -6 4 -10 -3 -10 -14z"/>
<path d="M1280 789 c0 -5 5 -7 10 -4 6 3 10 8 10 11 0 2 -4 4 -10 4 -5 0 -10
-5 -10 -11z"/>
<path d="M515 780 c-11 -5 -17 -9 -13 -9 3 -1 14 -4 24 -8 12 -4 15 -3 10 5
-10 16 7 15 23 0 10 -11 11 -10 6 5 -8 19 -19 20 -50 7z"/>
<path d="M615 770 c3 -5 10 -10 16 -10 5 0 9 5 9 10 0 6 -7 10 -16 10 -8 0
-12 -4 -9 -10z"/>
<path d="M299 713 c-10 -28 3 -55 16 -32 5 8 4 10 -3 5 -15 -9 -15 -5 -2 28 5
14 7 26 5 26 -3 0 -10 -12 -16 -27z"/>
<path d="M355 670 c3 -5 10 -10 16 -10 5 0 9 5 9 10 0 6 -7 10 -16 10 -8 0
-12 -4 -9 -10z"/>
<path d="M540 660 c0 -5 9 -10 20 -10 11 0 20 5 20 10 0 6 -9 10 -20 10 -11 0
-20 -4 -20 -10z"/>
<path d="M648 593 c7 -3 16 -2 19 1 4 3 -2 6 -13 5 -11 0 -14 -3 -6 -6z"/>
<path d="M166 378 c-3 -7 -13 -41 -24 -75 -21 -65 -20 -73 10 -73 11 0 18 -7
18 -20 0 -27 18 -25 22 3 11 78 -11 215 -26 165z m-1 -126 c-4 -11 -9 -12 -16
-5 -7 7 -6 24 3 54 l13 44 3 -39 c2 -21 1 -45 -3 -54z"/>
<path d="M242 378 c-7 -7 -12 -44 -12 -94 0 -87 6 -98 49 -87 19 5 21 12 21
87 0 79 -9 106 -35 106 -6 0 -16 -5 -23 -12z m38 -88 c0 -64 -3 -80 -15 -80
-16 0 -16 2 -17 60 -2 77 2 100 17 100 12 0 15 -16 15 -80z"/>
<path d="M377 380 c-12 -28 -47 -133 -47 -142 0 -4 11 -8 25 -8 19 0 25 -5 25
-22 0 -17 3 -19 12 -10 12 12 12 91 -1 157 -5 25 -10 35 -14 25z m3 -85 c0
-33 -4 -45 -15 -45 -8 0 -15 6 -15 14 0 16 20 76 26 76 2 0 4 -20 4 -45z"/>
<path d="M441 318 c1 -66 2 -69 10 -33 11 56 11 105 -1 105 -6 0 -10 -30 -9
-72z"/>
<path d="M562 378 c-18 -18 -14 -52 8 -76 24 -26 42 -70 34 -83 -11 -19 -34
-9 -34 16 0 14 -4 25 -10 25 -16 0 -12 -37 6 -55 9 -9 23 -14 31 -11 8 3 17 6
19 6 2 0 4 17 4 38 0 28 -7 45 -25 62 -28 26 -34 70 -10 70 8 0 15 -9 15 -19
0 -11 5 -23 10 -26 14 -9 12 39 -2 53 -7 7 -17 12 -23 12 -6 0 -16 -5 -23 -12z"/>
<path d="M1281 378 c0 -10 -6 -18 -12 -18 -8 0 -8 -4 -2 -12 6 -7 11 -42 11
-77 2 -63 13 -93 29 -76 5 4 2 10 -4 12 -17 6 -17 125 -1 141 8 8 9 12 1 12
-6 0 -14 8 -16 18 -4 16 -5 16 -6 0z"/>
<path d="M1416 363 c-15 -72 -26 -166 -21 -171 3 -4 8 4 12 16 7 29 37 28 52
0 9 -19 10 -14 6 32 -9 79 -25 150 -35 150 -5 0 -11 -12 -14 -27z m27 -70 c5
-44 1 -54 -16 -47 -14 5 -11 84 3 84 4 0 10 -17 13 -37z"/>
<path d="M1690 380 c0 -5 5 -10 10 -10 6 0 10 5 10 10 0 6 -4 10 -10 10 -5 0
-10 -4 -10 -10z"/>
<path d="M1750 290 c0 -60 4 -100 10 -100 6 0 10 40 10 100 0 60 -4 100 -10
100 -6 0 -10 -40 -10 -100z"/>
<path d="M1910 292 l0 -98 28 2 c15 1 31 2 35 3 4 0 7 36 5 79 -3 73 -4 77
-25 76 -16 0 -23 5 -23 18 0 10 -4 18 -10 18 -6 0 -10 -39 -10 -98z m54 8 c8
-49 -1 -90 -20 -90 -11 0 -14 16 -14 65 0 48 4 65 14 65 8 0 16 -16 20 -40z"/>
<path d="M2020 290 c0 -60 4 -100 10 -100 6 0 10 40 10 100 0 60 -4 100 -10
100 -6 0 -10 -40 -10 -100z"/>
<path d="M660 341 c-5 -11 -10 -42 -10 -70 0 -53 21 -87 47 -77 8 3 17 6 19 6
10 0 3 137 -8 148 -18 18 -36 15 -48 -7z m42 -30 c7 -47 -3 -101 -18 -101 -11
0 -14 16 -14 65 0 49 3 65 14 65 8 0 16 -13 18 -29z"/>
<path d="M760 274 c0 -49 4 -84 10 -84 6 0 10 30 10 71 0 53 4 75 15 83 13 9
11 11 -10 12 -25 2 -25 1 -25 -82z"/>
<path d="M830 274 c0 -49 4 -84 10 -84 6 0 10 29 10 67 0 43 5 72 14 82 13 14
12 16 -10 17 -24 2 -24 1 -24 -82z"/>
<path d="M901 338 c0 -13 6 -50 13 -83 12 -53 11 -62 -3 -79 -15 -17 -15 -18
4 -15 14 3 23 17 31 49 17 70 24 150 14 150 -6 0 -10 -12 -10 -27 0 -16 -3
-46 -7 -68 -6 -36 -7 -38 -14 -15 -4 14 -7 42 -8 62 -1 20 -5 40 -11 43 -6 3
-10 -4 -9 -17z"/>
<path d="M1062 270 l2 -85 5 75 c5 61 9 75 24 78 15 3 17 -6 17 -73 0 -48 4
-74 10 -70 13 8 13 125 0 145 -5 8 -21 15 -35 15 -25 1 -25 1 -23 -85z"/>
<path d="M1170 341 c-16 -31 -12 -117 6 -135 34 -34 54 -8 54 69 0 60 -11 85
-37 85 -7 0 -17 -9 -23 -19z m45 -45 c8 -51 0 -86 -21 -86 -11 0 -14 15 -14
65 0 50 3 65 14 65 10 0 17 -15 21 -44z"/>
<path d="M1496 318 c16 -106 20 -122 30 -125 7 -2 14 16 17 44 4 26 9 65 13
86 4 25 3 37 -5 37 -6 0 -11 -19 -11 -47 0 -77 -17 -87 -26 -15 -3 34 -11 62
-15 62 -5 0 -6 -19 -3 -42z"/>
<path d="M1596 344 c-11 -28 -6 -39 9 -20 12 16 18 17 27 8 10 -10 10 -17 0
-32 -7 -12 -8 -20 -2 -20 15 0 12 -67 -2 -73 -7 -3 -2 -6 10 -6 23 -1 24 1 19
69 -3 39 -9 75 -12 80 -10 16 -42 12 -49 -6z"/>
<path d="M1690 275 c0 -50 4 -85 10 -85 6 0 10 35 10 85 0 50 -4 85 -10 85 -6
0 -10 -35 -10 -85z"/>
<path d="M1822 348 c-7 -7 -12 -19 -12 -27 1 -13 3 -13 15 3 13 18 35 15 35
-6 0 -5 -13 -22 -30 -38 -24 -23 -28 -32 -21 -56 6 -24 13 -29 37 -28 29 0 29
1 30 60 1 91 -20 126 -54 92z m38 -102 c0 -39 -25 -57 -35 -25 -9 26 3 59 21
59 9 0 14 -11 14 -34z"/>
<path d="M2087 353 c-6 -9 -10 -75 -8 -119 1 -33 20 -48 46 -38 17 7 21 54 5
54 -5 0 -10 -9 -10 -21 0 -12 -5 -19 -12 -16 -7 2 -13 17 -13 33 0 23 5 30 23
32 20 3 23 8 20 40 -2 29 -8 38 -25 40 -11 2 -23 0 -26 -5z m36 -25 c6 -19 -3
-38 -19 -38 -8 0 -14 10 -14 25 0 26 25 35 33 13z"/>
<path d="M1597 273 c-10 -9 -9 -71 1 -77 4 -2 7 15 7 40 0 24 0 44 -1 44 0 0
-4 -3 -7 -7z"/>
<path d="M440 200 c0 -5 5 -10 10 -10 6 0 10 5 10 10 0 6 -4 10 -10 10 -5 0
-10 -4 -10 -10z"/>
</g>
</svg>
